<?xml version="1.0" encoding="UTF-8" standalone="no"?>
<!DOCTYPE svg PUBLIC "-//W3C//DTD SVG 1.1//EN"
 "http://www.w3.org/Graphics/SVG/1.1/DTD/svg11.dtd">
<!-- Generated by graphviz version 2.50.0 (20211204.2007)
 -->
<!-- Pages: 1 -->
<svg width="2954pt" height="170pt"
 viewBox="0.00 0.00 2953.50 170.12" xmlns="http://www.w3.org/2000/svg" xmlns:xlink="http://www.w3.org/1999/xlink">
<g id="graph0" class="graph" transform="scale(1 1) rotate(0) translate(4 166.12)">
<polygon fill="white" stroke="transparent" points="-4,4 -4,-166.12 2949.5,-166.12 2949.5,4 -4,4"/>
<!-- &#45;1 -->
<g id="node1" class="node">
<title>&#45;1</title>
<polygon fill="lightgray" stroke="black" points="24,-162.12 0,-162.12 0,-144.12 24,-144.12 24,-162.12"/>
<text text-anchor="middle" x="12" y="-150.92" font-family="Times,serif" font-size="9.00">&#45;1</text>
</g>
<!-- 0 -->
<g id="node65" class="node">
<title>0</title>
<ellipse fill="lightblue" stroke="black" cx="1482" cy="-14.85" rx="14.7" ry="14.7"/>
<text text-anchor="middle" x="1482" y="-12.65" font-family="Times,serif" font-size="9.00">0</text>
</g>
<!-- &#45;1&#45;&gt;0 -->
<g id="edge131" class="edge">
<title>&#45;1&#45;&gt;0</title>
<path fill="none" stroke="green" stroke-width="0.11" d="M15.62,-144C24.16,-125.99 47.44,-82.94 82,-65.7 145.98,-33.78 1274.09,-18.43 1457.03,-16.15"/>
<polygon fill="green" stroke="green" stroke-width="0.11" points="1457.09,-19.65 1467.04,-16.03 1457,-12.65 1457.09,-19.65"/>
</g>
<!-- 67 -->
<g id="node66" class="node">
<title>67</title>
<ellipse fill="white" stroke="black" cx="1482" cy="-86.91" rx="18.27" ry="18.27"/>
<text text-anchor="middle" x="1482" y="-84.71" font-family="Times,serif" font-size="9.00">67</text>
</g>
<!-- &#45;1&#45;&gt;67 -->
<g id="edge1" class="edge">
<title>&#45;1&#45;&gt;67</title>
<path fill="none" stroke="red" stroke-width="0.14" d="M24.23,-146.67C27.06,-145.64 30.09,-144.7 33,-144.12 187.96,-113.58 1304.34,-158.6 1454,-108.12 1456.12,-107.41 1458.22,-106.47 1460.26,-105.39"/>
<polygon fill="red" stroke="red" stroke-width="0.14" points="1462.15,-108.34 1468.68,-100 1458.38,-102.44 1462.15,-108.34"/>
</g>
<!-- 68 -->
<g id="node67" class="node">
<title>68</title>
<ellipse fill="white" stroke="black" cx="1427" cy="-86.91" rx="18.27" ry="18.27"/>
<text text-anchor="middle" x="1427" y="-84.71" font-family="Times,serif" font-size="9.00">68</text>
</g>
<!-- &#45;1&#45;&gt;68 -->
<g id="edge2" class="edge">
<title>&#45;1&#45;&gt;68</title>
<path fill="none" stroke="green" stroke-width="0.16" d="M24.24,-146.7C27.06,-145.67 30.1,-144.72 33,-144.12 307.4,-87.89 1223.85,-87.38 1398.21,-87.81"/>
<polygon fill="green" stroke="green" stroke-width="0.16" points="1398.38,-91.31 1408.39,-87.84 1398.4,-84.31 1398.38,-91.31"/>
</g>
<!-- &#45;2 -->
<g id="node2" class="node">
<title>&#45;2</title>
<polygon fill="lightgray" stroke="black" points="66,-162.12 42,-162.12 42,-144.12 66,-144.12 66,-162.12"/>
<text text-anchor="middle" x="54" y="-150.92" font-family="Times,serif" font-size="9.00">&#45;2</text>
</g>
<!-- &#45;2&#45;&gt;0 -->
<g id="edge132" class="edge">
<title>&#45;2&#45;&gt;0</title>
<path fill="none" stroke="green" stroke-width="0.3" d="M58.81,-143.97C70,-125.89 99.76,-82.7 138,-65.7 262.87,-10.18 1283.34,-14.52 1456.94,-15.66"/>
<polygon fill="green" stroke="green" stroke-width="0.3" points="1457.11,-19.16 1467.13,-15.73 1457.16,-12.16 1457.11,-19.16"/>
</g>
<!-- &#45;2&#45;&gt;67 -->
<g id="edge3" class="edge">
<title>&#45;2&#45;&gt;67</title>
<path fill="none" stroke="red" stroke-width="0.22" d="M66.23,-146.67C69.06,-145.64 72.09,-144.7 75,-144.12 225.37,-114.42 1308.78,-157.17 1454,-108.12 1456.12,-107.41 1458.22,-106.47 1460.26,-105.39"/>
<polygon fill="red" stroke="red" stroke-width="0.22" points="1462.15,-108.34 1468.68,-100 1458.37,-102.44 1462.15,-108.34"/>
</g>
<!-- &#45;2&#45;&gt;68 -->
<g id="edge4" class="edge">
<title>&#45;2&#45;&gt;68</title>
<path fill="none" stroke="red" stroke-width="0.51" d="M66.24,-146.71C69.06,-145.67 72.1,-144.72 75,-144.12 340.7,-89.5 1227.2,-87.68 1398.29,-87.85"/>
<polygon fill="red" stroke="red" stroke-width="0.51" points="1398.5,-91.35 1408.51,-87.87 1398.51,-84.35 1398.5,-91.35"/>
</g>
<!-- &#45;3 -->
<g id="node3" class="node">
<title>&#45;3</title>
<polygon fill="lightgray" stroke="black" points="108,-162.12 84,-162.12 84,-144.12 108,-144.12 108,-162.12"/>
<text text-anchor="middle" x="96" y="-150.92" font-family="Times,serif" font-size="9.00">&#45;3</text>
</g>
<!-- &#45;3&#45;&gt;0 -->
<g id="edge133" class="edge">
<title>&#45;3&#45;&gt;0</title>
<path fill="none" stroke="green" stroke-width="0.57" d="M103.27,-143.93C119.96,-125.78 163.24,-82.45 210,-65.7 331.46,-22.2 1289.61,-16.58 1457.07,-15.93"/>
<polygon fill="green" stroke="green" stroke-width="0.57" points="1457.16,-19.43 1467.14,-15.89 1457.13,-12.43 1457.16,-19.43"/>
</g>
<!-- &#45;3&#45;&gt;67 -->
<g id="edge5" class="edge">
<title>&#45;3&#45;&gt;67</title>
<path fill="none" stroke="green" stroke-width="0.3" d="M108.23,-146.68C111.06,-145.64 114.09,-144.7 117,-144.12 262.78,-115.26 1313.22,-155.73 1454,-108.12 1456.12,-107.41 1458.22,-106.47 1460.26,-105.39"/>
<polygon fill="green" stroke="green" stroke-width="0.3" points="1462.15,-108.33 1468.68,-99.99 1458.37,-102.44 1462.15,-108.33"/>
</g>
<!-- &#45;3&#45;&gt;68 -->
<g id="edge6" class="edge">
<title>&#45;3&#45;&gt;68</title>
<path fill="none" stroke="green" stroke-width="0.18" d="M108.24,-146.71C111.07,-145.67 114.1,-144.72 117,-144.12 374.02,-91.1 1230.73,-87.99 1398.4,-87.9"/>
<polygon fill="green" stroke="green" stroke-width="0.18" points="1398.64,-91.4 1408.64,-87.89 1398.64,-84.4 1398.64,-91.4"/>
</g>
<!-- &#45;4 -->
<g id="node4" class="node">
<title>&#45;4</title>
<polygon fill="lightgray" stroke="black" points="150,-162.12 126,-162.12 126,-144.12 150,-144.12 150,-162.12"/>
<text text-anchor="middle" x="138" y="-150.92" font-family="Times,serif" font-size="9.00">&#45;4</text>
</g>
<!-- &#45;4&#45;&gt;0 -->
<g id="edge134" class="edge">
<title>&#45;4&#45;&gt;0</title>
<path fill="none" stroke="green" stroke-width="0.59" d="M150.23,-145.2C164.76,-136.84 189.61,-122.16 210,-108.12 235.43,-90.62 235.99,-76.26 265,-65.7 380.7,-23.6 1293.15,-16.84 1456.88,-15.97"/>
<polygon fill="green" stroke="green" stroke-width="0.59" points="1456.98,-19.46 1466.97,-15.91 1456.95,-12.46 1456.98,-19.46"/>
</g>
<!-- &#45;4&#45;&gt;67 -->
<g id="edge7" class="edge">
<title>&#45;4&#45;&gt;67</title>
<path fill="none" stroke="green" stroke-width="0.43" d="M150.23,-146.68C153.06,-145.64 156.09,-144.7 159,-144.12 300.19,-116.11 1317.66,-154.3 1454,-108.12 1456.12,-107.41 1458.22,-106.47 1460.26,-105.39"/>
<polygon fill="green" stroke="green" stroke-width="0.43" points="1462.15,-108.33 1468.68,-99.99 1458.37,-102.44 1462.15,-108.33"/>
</g>
<!-- &#45;4&#45;&gt;68 -->
<g id="edge8" class="edge">
<title>&#45;4&#45;&gt;68</title>
<path fill="none" stroke="green" stroke-width="0.34" d="M150.24,-146.71C153.07,-145.68 156.1,-144.73 159,-144.12 407.11,-92.76 1232.68,-88.32 1398.02,-87.94"/>
<polygon fill="green" stroke="green" stroke-width="0.34" points="1398.37,-91.44 1408.36,-87.92 1398.35,-84.44 1398.37,-91.44"/>
</g>
<!-- &#45;5 -->
<g id="node5" class="node">
<title>&#45;5</title>
<polygon fill="lightgray" stroke="black" points="192,-162.12 168,-162.12 168,-144.12 192,-144.12 192,-162.12"/>
<text text-anchor="middle" x="180" y="-150.92" font-family="Times,serif" font-size="9.00">&#45;5</text>
</g>
<!-- &#45;5&#45;&gt;0 -->
<g id="edge135" class="edge">
<title>&#45;5&#45;&gt;0</title>
<path fill="none" stroke="green" stroke-width="0.24" d="M192.09,-147.05C209.09,-139.66 240.69,-124.97 265,-108.12 288.13,-92.1 285.96,-76.36 312,-65.7 421.33,-20.96 1296.55,-16.37 1456.84,-15.9"/>
<polygon fill="green" stroke="green" stroke-width="0.24" points="1457.13,-19.4 1467.12,-15.87 1457.11,-12.4 1457.13,-19.4"/>
</g>
<!-- &#45;5&#45;&gt;67 -->
<g id="edge9" class="edge">
<title>&#45;5&#45;&gt;67</title>
<path fill="none" stroke="green" stroke-width="0.38" d="M192.23,-146.68C195.06,-145.64 198.09,-144.7 201,-144.12 337.6,-116.95 1322.1,-152.86 1454,-108.12 1456.12,-107.41 1458.22,-106.46 1460.26,-105.38"/>
<polygon fill="green" stroke="green" stroke-width="0.38" points="1462.15,-108.33 1468.68,-99.99 1458.37,-102.44 1462.15,-108.33"/>
</g>
<!-- &#45;5&#45;&gt;68 -->
<g id="edge10" class="edge">
<title>&#45;5&#45;&gt;68</title>
<path fill="none" stroke="red" stroke-width="0.19" d="M192.24,-146.72C195.07,-145.68 198.1,-144.73 201,-144.12 440.62,-94.33 1237.41,-88.64 1398.47,-87.99"/>
<polygon fill="red" stroke="red" stroke-width="0.19" points="1398.57,-91.49 1408.55,-87.96 1398.54,-84.49 1398.57,-91.49"/>
</g>
<!-- &#45;6 -->
<g id="node6" class="node">
<title>&#45;6</title>
<polygon fill="lightgray" stroke="black" points="234,-162.12 210,-162.12 210,-144.12 234,-144.12 234,-162.12"/>
<text text-anchor="middle" x="222" y="-150.92" font-family="Times,serif" font-size="9.00">&#45;6</text>
</g>
<!-- &#45;6&#45;&gt;0 -->
<g id="edge136" class="edge">
<title>&#45;6&#45;&gt;0</title>
<path fill="none" stroke="green" stroke-width="0.22" d="M234.19,-146.78C255.5,-137.33 298.58,-117.76 312,-108.12 333.55,-92.65 329.74,-76.45 354,-65.7 457.91,-19.63 1299.42,-16.12 1456.72,-15.87"/>
<polygon fill="green" stroke="green" stroke-width="0.22" points="1456.85,-19.37 1466.85,-15.85 1456.84,-12.37 1456.85,-19.37"/>
</g>
<!-- &#45;6&#45;&gt;67 -->
<g id="edge11" class="edge">
<title>&#45;6&#45;&gt;67</title>
<path fill="none" stroke="green" stroke-width="0.19" d="M234.23,-146.68C237.06,-145.65 240.09,-144.7 243,-144.12 375.02,-117.8 1326.54,-151.43 1454,-108.12 1456.12,-107.4 1458.22,-106.46 1460.26,-105.38"/>
<polygon fill="green" stroke="green" stroke-width="0.19" points="1462.15,-108.33 1468.68,-99.99 1458.37,-102.43 1462.15,-108.33"/>
</g>
<!-- &#45;6&#45;&gt;68 -->
<g id="edge12" class="edge">
<title>&#45;6&#45;&gt;68</title>
<path fill="none" stroke="green" stroke-width="0.18" d="M234.24,-146.72C237.07,-145.68 240.1,-144.73 243,-144.12 473.66,-95.99 1239.1,-88.99 1397.97,-88.05"/>
<polygon fill="green" stroke="green" stroke-width="0.18" points="1398.37,-91.55 1408.35,-87.99 1398.33,-84.55 1398.37,-91.55"/>
</g>
<!-- &#45;7 -->
<g id="node7" class="node">
<title>&#45;7</title>
<polygon fill="lightgray" stroke="black" points="276,-162.12 252,-162.12 252,-144.12 276,-144.12 276,-162.12"/>
<text text-anchor="middle" x="264" y="-150.92" font-family="Times,serif" font-size="9.00">&#45;7</text>
</g>
<!-- &#45;7&#45;&gt;0 -->
<g id="edge137" class="edge">
<title>&#45;7&#45;&gt;0</title>
<path fill="none" stroke="red" stroke-width="0.32" d="M276.21,-146.81C297.56,-137.41 340.7,-117.92 354,-108.12 374.87,-92.76 370.45,-76.51 394,-65.7 493.44,-20.06 1302.46,-16.2 1456.66,-15.88"/>
<polygon fill="red" stroke="red" stroke-width="0.32" points="1456.99,-19.38 1466.99,-15.86 1456.98,-12.38 1456.99,-19.38"/>
</g>
<!-- &#45;7&#45;&gt;67 -->
<g id="edge13" class="edge">
<title>&#45;7&#45;&gt;67</title>
<path fill="none" stroke="red" stroke-width="0.11" d="M276.23,-146.68C279.06,-145.65 282.09,-144.71 285,-144.12 539.85,-93.16 1207.96,-191.86 1454,-108.12 1456.12,-107.4 1458.22,-106.46 1460.26,-105.38"/>
<polygon fill="red" stroke="red" stroke-width="0.11" points="1462.15,-108.32 1468.68,-99.98 1458.37,-102.43 1462.15,-108.32"/>
</g>
<!-- &#45;7&#45;&gt;68 -->
<g id="edge14" class="edge">
<title>&#45;7&#45;&gt;68</title>
<path fill="none" stroke="green" stroke-width="0.2" d="M276.24,-146.72C279.07,-145.69 282.1,-144.73 285,-144.12 507.22,-97.55 1244.19,-89.33 1398.51,-88.1"/>
<polygon fill="green" stroke="green" stroke-width="0.2" points="1398.63,-91.6 1408.6,-88.03 1398.57,-84.6 1398.63,-91.6"/>
</g>
<!-- &#45;8 -->
<g id="node8" class="node">
<title>&#45;8</title>
<polygon fill="lightgray" stroke="black" points="318,-162.12 294,-162.12 294,-144.12 318,-144.12 318,-162.12"/>
<text text-anchor="middle" x="306" y="-150.92" font-family="Times,serif" font-size="9.00">&#45;8</text>
</g>
<!-- &#45;8&#45;&gt;0 -->
<g id="edge138" class="edge">
<title>&#45;8&#45;&gt;0</title>
<path fill="none" stroke="red" stroke-width="0.27" d="M318.28,-146.66C339.29,-137.19 381.11,-117.84 394,-108.12 414.46,-92.72 409.8,-76.55 433,-65.7 528.46,-21.05 1307.19,-16.39 1457.09,-15.91"/>
<polygon fill="red" stroke="red" stroke-width="0.27" points="1457.15,-19.4 1467.14,-15.88 1457.13,-12.4 1457.15,-19.4"/>
</g>
<!-- &#45;8&#45;&gt;67 -->
<g id="edge15" class="edge">
<title>&#45;8&#45;&gt;67</title>
<path fill="none" stroke="red" stroke-width="0.36" d="M318.23,-146.69C321.06,-145.65 324.09,-144.71 327,-144.12 572.68,-94.85 1216.83,-188.99 1454,-108.12 1456.12,-107.4 1458.22,-106.46 1460.26,-105.38"/>
<polygon fill="red" stroke="red" stroke-width="0.36" points="1462.15,-108.32 1468.68,-99.98 1458.37,-102.43 1462.15,-108.32"/>
</g>
<!-- &#45;8&#45;&gt;68 -->
<g id="edge16" class="edge">
<title>&#45;8&#45;&gt;68</title>
<path fill="none" stroke="red" stroke-width="0.18" d="M318.24,-146.73C321.07,-145.69 324.1,-144.74 327,-144.12 540.36,-99.2 1246.46,-89.71 1398.14,-88.17"/>
<polygon fill="red" stroke="red" stroke-width="0.18" points="1398.51,-91.67 1408.47,-88.07 1398.44,-84.67 1398.51,-91.67"/>
</g>
<!-- &#45;9 -->
<g id="node9" class="node">
<title>&#45;9</title>
<polygon fill="lightgray" stroke="black" points="360,-162.12 336,-162.12 336,-144.12 360,-144.12 360,-162.12"/>
<text text-anchor="middle" x="348" y="-150.92" font-family="Times,serif" font-size="9.00">&#45;9</text>
</g>
<!-- &#45;9&#45;&gt;0 -->
<g id="edge139" class="edge">
<title>&#45;9&#45;&gt;0</title>
<path fill="none" stroke="red" stroke-width="0.16" d="M360.03,-147.48C377.23,-140.5 409.37,-126.19 433,-108.12 453.35,-92.57 448.81,-76.57 472,-65.7 563.6,-22.76 1309.03,-16.73 1456.65,-15.96"/>
<polygon fill="red" stroke="red" stroke-width="0.16" points="1456.97,-19.45 1466.95,-15.91 1456.93,-12.46 1456.97,-19.45"/>
</g>
<!-- &#45;9&#45;&gt;67 -->
<g id="edge17" class="edge">
<title>&#45;9&#45;&gt;67</title>
<path fill="none" stroke="red" stroke-width="0.23" d="M360.24,-146.69C363.06,-145.65 366.09,-144.71 369,-144.12 605.5,-96.53 1225.71,-186.12 1454,-108.12 1456.12,-107.4 1458.22,-106.46 1460.26,-105.37"/>
<polygon fill="red" stroke="red" stroke-width="0.23" points="1462.15,-108.32 1468.68,-99.97 1458.37,-102.43 1462.15,-108.32"/>
</g>
<!-- &#45;9&#45;&gt;68 -->
<g id="edge18" class="edge">
<title>&#45;9&#45;&gt;68</title>
<path fill="none" stroke="green" stroke-width="0.17" d="M360.24,-146.73C363.07,-145.69 366.1,-144.74 369,-144.12 573.75,-100.8 1250.45,-90.08 1398.3,-88.23"/>
<polygon fill="green" stroke="green" stroke-width="0.17" points="1398.43,-91.73 1408.39,-88.11 1398.35,-84.73 1398.43,-91.73"/>
</g>
<!-- &#45;10 -->
<g id="node10" class="node">
<title>&#45;10</title>
<polygon fill="lightgray" stroke="black" points="407.5,-162.12 378.5,-162.12 378.5,-144.12 407.5,-144.12 407.5,-162.12"/>
<text text-anchor="middle" x="393" y="-150.92" font-family="Times,serif" font-size="9.00">&#45;10</text>
</g>
<!-- &#45;10&#45;&gt;0 -->
<g id="edge140" class="edge">
<title>&#45;10&#45;&gt;0</title>
<path fill="none" stroke="green" stroke-width="0.17" d="M407.58,-145.8C424.14,-138.23 451.52,-124.49 472,-108.12 491.77,-92.32 487.16,-76.61 510,-65.7 597.76,-23.76 1313.96,-16.94 1457.14,-15.99"/>
<polygon fill="green" stroke="green" stroke-width="0.17" points="1457.17,-19.49 1467.14,-15.93 1457.12,-12.49 1457.17,-19.49"/>
</g>
<!-- &#45;10&#45;&gt;67 -->
<g id="edge19" class="edge">
<title>&#45;10&#45;&gt;67</title>
<path fill="none" stroke="red" stroke-width="0.19" d="M407.92,-146.21C410.57,-145.37 413.34,-144.62 416,-144.12 642.88,-101.74 1235.65,-182.91 1454,-108.12 1456.12,-107.4 1458.22,-106.45 1460.25,-105.37"/>
<polygon fill="red" stroke="red" stroke-width="0.19" points="1462.15,-108.31 1468.67,-99.97 1458.37,-102.42 1462.15,-108.31"/>
</g>
<!-- &#45;10&#45;&gt;68 -->
<g id="edge20" class="edge">
<title>&#45;10&#45;&gt;68</title>
<path fill="none" stroke="red" stroke-width="0.37" d="M407.93,-146.26C410.58,-145.41 413.35,-144.65 416,-144.12 611.6,-105.46 1254.36,-91.18 1398.25,-88.43"/>
<polygon fill="red" stroke="red" stroke-width="0.37" points="1398.53,-91.92 1408.46,-88.24 1398.4,-84.93 1398.53,-91.92"/>
</g>
<!-- &#45;11 -->
<g id="node11" class="node">
<title>&#45;11</title>
<polygon fill="lightgray" stroke="black" points="454.5,-162.12 425.5,-162.12 425.5,-144.12 454.5,-144.12 454.5,-162.12"/>
<text text-anchor="middle" x="440" y="-150.92" font-family="Times,serif" font-size="9.00">&#45;11</text>
</g>
<!-- &#45;11&#45;&gt;0 -->
<g id="edge141" class="edge">
<title>&#45;11&#45;&gt;0</title>
<path fill="none" stroke="green" stroke-width="0.42" d="M454.74,-144.45C469.49,-136.42 492.45,-122.93 510,-108.12 529.35,-91.8 525.17,-76.64 548,-65.7 632.03,-25.43 1316.24,-17.3 1456.81,-16.05"/>
<polygon fill="green" stroke="green" stroke-width="0.42" points="1457.04,-19.54 1467.01,-15.96 1456.98,-12.54 1457.04,-19.54"/>
</g>
<!-- &#45;11&#45;&gt;67 -->
<g id="edge21" class="edge">
<title>&#45;11&#45;&gt;67</title>
<path fill="none" stroke="red" stroke-width="0.34" d="M454.92,-146.22C457.57,-145.37 460.34,-144.62 463,-144.12 679.59,-103.48 1245.58,-179.7 1454,-108.12 1456.12,-107.4 1458.22,-106.45 1460.25,-105.37"/>
<polygon fill="red" stroke="red" stroke-width="0.34" points="1462.15,-108.31 1468.67,-99.96 1458.37,-102.42 1462.15,-108.31"/>
</g>
<!-- &#45;11&#45;&gt;68 -->
<g id="edge22" class="edge">
<title>&#45;11&#45;&gt;68</title>
<path fill="none" stroke="green" stroke-width="0.49" d="M454.93,-146.27C457.58,-145.42 460.35,-144.65 463,-144.12 648.9,-107.12 1258.53,-91.63 1398.28,-88.52"/>
<polygon fill="green" stroke="green" stroke-width="0.49" points="1398.66,-92.01 1408.58,-88.29 1398.5,-85.01 1398.66,-92.01"/>
</g>
<!-- &#45;12 -->
<g id="node12" class="node">
<title>&#45;12</title>
<polygon fill="lightgray" stroke="black" points="501.5,-162.12 472.5,-162.12 472.5,-144.12 501.5,-144.12 501.5,-162.12"/>
<text text-anchor="middle" x="487" y="-150.92" font-family="Times,serif" font-size="9.00">&#45;12</text>
</g>
<!-- &#45;12&#45;&gt;0 -->
<g id="edge142" class="edge">
<title>&#45;12&#45;&gt;0</title>
<path fill="none" stroke="red" stroke-width="0.2" d="M499.75,-144.1C512.52,-135.79 532.47,-122.1 548,-108.12 566.82,-91.19 563.18,-76.66 586,-65.7 666.33,-27.1 1318.88,-17.68 1456.56,-16.11"/>
<polygon fill="red" stroke="red" stroke-width="0.2" points="1456.96,-19.61 1466.92,-16 1456.88,-12.61 1456.96,-19.61"/>
</g>
<!-- &#45;12&#45;&gt;67 -->
<g id="edge23" class="edge">
<title>&#45;12&#45;&gt;67</title>
<path fill="none" stroke="green" stroke-width="0.29" d="M501.92,-146.22C504.57,-145.38 507.34,-144.63 510,-144.12 716.29,-105.21 1255.51,-176.49 1454,-108.12 1456.12,-107.4 1458.22,-106.45 1460.25,-105.36"/>
<polygon fill="green" stroke="green" stroke-width="0.29" points="1462.15,-108.31 1468.67,-99.96 1458.36,-102.41 1462.15,-108.31"/>
</g>
<!-- &#45;12&#45;&gt;68 -->
<g id="edge24" class="edge">
<title>&#45;12&#45;&gt;68</title>
<path fill="none" stroke="green" stroke-width="0.74" d="M501.93,-146.27C504.58,-145.42 507.35,-144.66 510,-144.12 686.24,-108.77 1262.99,-92.1 1398.37,-88.61"/>
<polygon fill="green" stroke="green" stroke-width="0.74" points="1398.48,-92.11 1408.38,-88.36 1398.3,-85.11 1398.48,-92.11"/>
</g>
<!-- &#45;13 -->
<g id="node13" class="node">
<title>&#45;13</title>
<polygon fill="lightgray" stroke="black" points="548.5,-162.12 519.5,-162.12 519.5,-144.12 548.5,-144.12 548.5,-162.12"/>
<text text-anchor="middle" x="534" y="-150.92" font-family="Times,serif" font-size="9.00">&#45;13</text>
</g>
<!-- &#45;13&#45;&gt;0 -->
<g id="edge143" class="edge">
<title>&#45;13&#45;&gt;0</title>
<path fill="none" stroke="red" stroke-width="0.14" d="M544.33,-144.09C555.09,-135.55 572.26,-121.48 586,-108.12 604.15,-90.48 601.2,-76.69 624,-65.7 700.72,-28.71 1323.14,-18.05 1456.79,-16.17"/>
<polygon fill="red" stroke="red" stroke-width="0.14" points="1456.93,-19.67 1466.88,-16.04 1456.83,-12.67 1456.93,-19.67"/>
</g>
<!-- &#45;13&#45;&gt;67 -->
<g id="edge25" class="edge">
<title>&#45;13&#45;&gt;67</title>
<path fill="none" stroke="green" stroke-width="0.39" d="M548.92,-146.23C551.57,-145.38 554.34,-144.63 557,-144.12 753,-106.95 1265.45,-173.28 1454,-108.12 1456.12,-107.39 1458.21,-106.44 1460.25,-105.36"/>
<polygon fill="green" stroke="green" stroke-width="0.39" points="1462.14,-108.3 1468.67,-99.95 1458.36,-102.41 1462.14,-108.3"/>
</g>
<!-- &#45;13&#45;&gt;68 -->
<g id="edge26" class="edge">
<title>&#45;13&#45;&gt;68</title>
<path fill="none" stroke="red" stroke-width="0.19" d="M548.93,-146.28C551.58,-145.43 554.35,-144.66 557,-144.12 723.66,-110.41 1267.94,-92.57 1398.61,-88.72"/>
<polygon fill="red" stroke="red" stroke-width="0.19" points="1398.74,-92.21 1408.63,-88.42 1398.53,-85.22 1398.74,-92.21"/>
</g>
<!-- &#45;14 -->
<g id="node14" class="node">
<title>&#45;14</title>
<polygon fill="lightgray" stroke="black" points="595.5,-162.12 566.5,-162.12 566.5,-144.12 595.5,-144.12 595.5,-162.12"/>
<text text-anchor="middle" x="581" y="-150.92" font-family="Times,serif" font-size="9.00">&#45;14</text>
</g>
<!-- &#45;14&#45;&gt;0 -->
<g id="edge144" class="edge">
<title>&#45;14&#45;&gt;0</title>
<path fill="none" stroke="red" stroke-width="0.22" d="M589.03,-144.12C597.75,-135.38 612.03,-120.92 624,-108.12 641.29,-89.64 639.21,-76.72 662,-65.7 735.06,-30.36 1326.45,-18.45 1456.69,-16.25"/>
<polygon fill="red" stroke="red" stroke-width="0.22" points="1456.94,-19.74 1466.88,-16.08 1456.82,-12.75 1456.94,-19.74"/>
</g>
<!-- &#45;14&#45;&gt;67 -->
<g id="edge27" class="edge">
<title>&#45;14&#45;&gt;67</title>
<path fill="none" stroke="green" stroke-width="0.14" d="M595.92,-146.23C598.58,-145.39 601.34,-144.63 604,-144.12 789.71,-108.69 1275.38,-170.07 1454,-108.12 1456.12,-107.39 1458.21,-106.44 1460.25,-105.35"/>
<polygon fill="green" stroke="green" stroke-width="0.14" points="1462.14,-108.29 1468.67,-99.94 1458.36,-102.4 1462.14,-108.29"/>
</g>
<!-- &#45;14&#45;&gt;68 -->
<g id="edge28" class="edge">
<title>&#45;14&#45;&gt;68</title>
<path fill="none" stroke="red" stroke-width="0.19" d="M595.93,-146.29C598.59,-145.44 601.35,-144.67 604,-144.12 760.97,-112.07 1272.16,-93.11 1398.55,-88.84"/>
<polygon fill="red" stroke="red" stroke-width="0.19" points="1398.72,-92.33 1408.6,-88.5 1398.49,-85.34 1398.72,-92.33"/>
</g>
<!-- &#45;15 -->
<g id="node15" class="node">
<title>&#45;15</title>
<polygon fill="lightgray" stroke="black" points="642.5,-162.12 613.5,-162.12 613.5,-144.12 642.5,-144.12 642.5,-162.12"/>
<text text-anchor="middle" x="628" y="-150.92" font-family="Times,serif" font-size="9.00">&#45;15</text>
</g>
<!-- &#45;15&#45;&gt;0 -->
<g id="edge145" class="edge">
<title>&#45;15&#45;&gt;0</title>
<path fill="none" stroke="red" stroke-width="0.2" d="M634.51,-144.04C651.18,-123.43 694.76,-70.24 704,-65.7 772.91,-31.84 1330.85,-18.84 1456.8,-16.32"/>
<polygon fill="red" stroke="red" stroke-width="0.2" points="1457.07,-19.82 1467,-16.12 1456.93,-12.82 1457.07,-19.82"/>
</g>
<!-- &#45;15&#45;&gt;67 -->
<g id="edge29" class="edge">
<title>&#45;15&#45;&gt;67</title>
<path fill="none" stroke="red" stroke-width="0.14" d="M642.92,-146.24C645.58,-145.39 648.34,-144.64 651,-144.12 826.42,-110.43 1285.31,-166.86 1454,-108.12 1456.12,-107.39 1458.21,-106.44 1460.25,-105.35"/>
<polygon fill="red" stroke="red" stroke-width="0.14" points="1462.14,-108.29 1468.66,-99.94 1458.36,-102.4 1462.14,-108.29"/>
</g>
<!-- &#45;15&#45;&gt;68 -->
<g id="edge30" class="edge">
<title>&#45;15&#45;&gt;68</title>
<path fill="none" stroke="red" stroke-width="0.16" d="M642.93,-146.3C645.59,-145.45 648.35,-144.67 651,-144.12 798.35,-113.71 1276.9,-93.66 1398.63,-88.97"/>
<polygon fill="red" stroke="red" stroke-width="0.16" points="1398.8,-92.47 1408.66,-88.59 1398.53,-85.47 1398.8,-92.47"/>
</g>
<!-- &#45;16 -->
<g id="node16" class="node">
<title>&#45;16</title>
<polygon fill="lightgray" stroke="black" points="689.5,-162.12 660.5,-162.12 660.5,-144.12 689.5,-144.12 689.5,-162.12"/>
<text text-anchor="middle" x="675" y="-150.92" font-family="Times,serif" font-size="9.00">&#45;16</text>
</g>
<!-- &#45;16&#45;&gt;0 -->
<g id="edge146" class="edge">
<title>&#45;16&#45;&gt;0</title>
<path fill="none" stroke="red" stroke-width="0.43" d="M680.33,-144C693.45,-124.27 727.52,-74.77 745,-65.7 809.36,-32.29 1335.34,-19 1456.96,-16.36"/>
<polygon fill="red" stroke="red" stroke-width="0.43" points="1457.22,-19.86 1467.15,-16.14 1457.07,-12.86 1457.22,-19.86"/>
</g>
<!-- &#45;16&#45;&gt;67 -->
<g id="edge31" class="edge">
<title>&#45;16&#45;&gt;67</title>
<path fill="none" stroke="red" stroke-width="0.45" d="M689.92,-146.24C692.58,-145.4 695.34,-144.64 698,-144.12 863.13,-112.17 1295.24,-163.65 1454,-108.12 1456.12,-107.39 1458.21,-106.43 1460.24,-105.34"/>
<polygon fill="red" stroke="red" stroke-width="0.45" points="1462.14,-108.28 1468.66,-99.93 1458.36,-102.39 1462.14,-108.28"/>
</g>
<!-- &#45;16&#45;&gt;68 -->
<g id="edge32" class="edge">
<title>&#45;16&#45;&gt;68</title>
<path fill="none" stroke="red" stroke-width="0.29" d="M689.94,-146.31C692.59,-145.45 695.35,-144.68 698,-144.12 965.98,-88.17 1299.82,-86.6 1398.37,-87.49"/>
<polygon fill="red" stroke="red" stroke-width="0.29" points="1398.41,-90.99 1408.44,-87.6 1398.48,-83.99 1398.41,-90.99"/>
</g>
<!-- &#45;17 -->
<g id="node17" class="node">
<title>&#45;17</title>
<polygon fill="lightgray" stroke="black" points="736.5,-162.12 707.5,-162.12 707.5,-144.12 736.5,-144.12 736.5,-162.12"/>
<text text-anchor="middle" x="722" y="-150.92" font-family="Times,serif" font-size="9.00">&#45;17</text>
</g>
<!-- &#45;17&#45;&gt;0 -->
<g id="edge147" class="edge">
<title>&#45;17&#45;&gt;0</title>
<path fill="none" stroke="green" stroke-width="0.24" d="M725.67,-144.09C734.3,-126.27 757.77,-83.57 792,-65.7 851.95,-34.4 1340.53,-19.59 1457.1,-16.48"/>
<polygon fill="green" stroke="green" stroke-width="0.24" points="1457.28,-19.98 1467.19,-16.22 1457.1,-12.98 1457.28,-19.98"/>
</g>
<!-- &#45;17&#45;&gt;67 -->
<g id="edge33" class="edge">
<title>&#45;17&#45;&gt;67</title>
<path fill="none" stroke="red" stroke-width="0.15" d="M736.92,-146.25C739.58,-145.4 742.34,-144.64 745,-144.12 899.84,-113.91 1305.17,-160.44 1454,-108.12 1456.11,-107.38 1458.21,-106.42 1460.24,-105.33"/>
<polygon fill="red" stroke="red" stroke-width="0.15" points="1462.14,-108.27 1468.66,-99.92 1458.35,-102.39 1462.14,-108.27"/>
</g>
<!-- &#45;17&#45;&gt;68 -->
<g id="edge34" class="edge">
<title>&#45;17&#45;&gt;68</title>
<path fill="none" stroke="green" stroke-width="0.21" d="M736.94,-146.32C739.59,-145.46 742.35,-144.68 745,-144.12 994.05,-91.44 1303.96,-87.57 1398.39,-87.71"/>
<polygon fill="green" stroke="green" stroke-width="0.21" points="1398.57,-91.21 1408.58,-87.74 1398.59,-84.21 1398.57,-91.21"/>
</g>
<!-- &#45;18 -->
<g id="node18" class="node">
<title>&#45;18</title>
<polygon fill="lightgray" stroke="black" points="783.5,-162.12 754.5,-162.12 754.5,-144.12 783.5,-144.12 783.5,-162.12"/>
<text text-anchor="middle" x="769" y="-150.92" font-family="Times,serif" font-size="9.00">&#45;18</text>
</g>
<!-- &#45;18&#45;&gt;0 -->
<g id="edge148" class="edge">
<title>&#45;18&#45;&gt;0</title>
<path fill="none" stroke="green" stroke-width="0.52" d="M772.68,-144.11C781.32,-126.31 804.81,-83.66 839,-65.7 894.52,-36.53 1345.33,-20.24 1457.03,-16.62"/>
<polygon fill="green" stroke="green" stroke-width="0.52" points="1457.15,-20.12 1467.04,-16.3 1456.93,-13.12 1457.15,-20.12"/>
</g>
<!-- &#45;18&#45;&gt;67 -->
<g id="edge35" class="edge">
<title>&#45;18&#45;&gt;67</title>
<path fill="none" stroke="green" stroke-width="0.16" d="M783.93,-146.26C786.58,-145.41 789.35,-144.65 792,-144.12 936.55,-115.65 1315.1,-157.23 1454,-108.12 1456.11,-107.38 1458.21,-106.42 1460.24,-105.32"/>
<polygon fill="green" stroke="green" stroke-width="0.16" points="1462.14,-108.26 1468.65,-99.91 1458.35,-102.38 1462.14,-108.26"/>
</g>
<!-- &#45;18&#45;&gt;68 -->
<g id="edge36" class="edge">
<title>&#45;18&#45;&gt;68</title>
<path fill="none" stroke="red" stroke-width="0.26" d="M783.94,-146.33C786.59,-145.48 789.35,-144.69 792,-144.12 1022.08,-94.72 1308.03,-88.61 1398.31,-87.95"/>
<polygon fill="red" stroke="red" stroke-width="0.26" points="1398.59,-91.45 1408.57,-87.9 1398.55,-84.45 1398.59,-91.45"/>
</g>
<!-- &#45;19 -->
<g id="node19" class="node">
<title>&#45;19</title>
<polygon fill="lightgray" stroke="black" points="830.5,-162.12 801.5,-162.12 801.5,-144.12 830.5,-144.12 830.5,-162.12"/>
<text text-anchor="middle" x="816" y="-150.92" font-family="Times,serif" font-size="9.00">&#45;19</text>
</g>
<!-- &#45;19&#45;&gt;0 -->
<g id="edge149" class="edge">
<title>&#45;19&#45;&gt;0</title>
<path fill="none" stroke="green" stroke-width="0.11" d="M819.77,-144.12C828.62,-126.35 852.61,-83.75 887,-65.7 988.3,-12.53 1357.24,-13.99 1456.99,-15.4"/>
<polygon fill="green" stroke="green" stroke-width="0.11" points="1456.99,-18.9 1467.05,-15.56 1457.1,-11.9 1456.99,-18.9"/>
</g>
<!-- &#45;19&#45;&gt;67 -->
<g id="edge37" class="edge">
<title>&#45;19&#45;&gt;67</title>
<path fill="none" stroke="green" stroke-width="0.2" d="M830.93,-146.27C833.58,-145.42 836.35,-144.65 839,-144.12 973.26,-117.38 1325.02,-154.02 1454,-108.12 1456.11,-107.37 1458.2,-106.41 1460.24,-105.31"/>
<polygon fill="green" stroke="green" stroke-width="0.2" points="1462.14,-108.25 1468.65,-99.89 1458.35,-102.37 1462.14,-108.25"/>
</g>
<!-- &#45;19&#45;&gt;68 -->
<g id="edge38" class="edge">
<title>&#45;19&#45;&gt;68</title>
<path fill="none" stroke="red" stroke-width="0.41" d="M830.95,-146.35C833.6,-145.49 836.36,-144.7 839,-144.12 1050.37,-97.96 1312.71,-89.71 1398.45,-88.23"/>
<polygon fill="red" stroke="red" stroke-width="0.41" points="1398.52,-91.73 1408.46,-88.08 1398.41,-84.73 1398.52,-91.73"/>
</g>
<!-- &#45;20 -->
<g id="node20" class="node">
<title>&#45;20</title>
<polygon fill="lightgray" stroke="black" points="877.5,-162.12 848.5,-162.12 848.5,-144.12 877.5,-144.12 877.5,-162.12"/>
<text text-anchor="middle" x="863" y="-150.92" font-family="Times,serif" font-size="9.00">&#45;20</text>
</g>
<!-- &#45;20&#45;&gt;0 -->
<g id="edge150" class="edge">
<title>&#45;20&#45;&gt;0</title>
<path fill="none" stroke="red" stroke-width="0.1" d="M866.91,-143.87C875.89,-125.97 899.85,-83.78 934,-65.7 1026.48,-16.74 1362,-15.07 1456.86,-15.61"/>
<polygon fill="red" stroke="red" stroke-width="0.1" points="1456.94,-19.11 1466.97,-15.68 1456.99,-12.11 1456.94,-19.11"/>
</g>
<!-- &#45;20&#45;&gt;67 -->
<g id="edge39" class="edge">
<title>&#45;20&#45;&gt;67</title>
<path fill="none" stroke="red" stroke-width="0.16" stroke-dasharray="1,5" d="M877.93,-146.28C880.58,-145.43 883.35,-144.66 886,-144.12 1009.98,-119.12 1334.95,-150.81 1454,-108.12 1456.11,-107.37 1458.2,-106.4 1460.23,-105.3"/>
<polygon fill="red" stroke="red" stroke-width="0.16" points="1462.14,-108.24 1468.64,-99.88 1458.34,-102.36 1462.14,-108.24"/>
</g>
<!-- &#45;20&#45;&gt;68 -->
<g id="edge40" class="edge">
<title>&#45;20&#45;&gt;68</title>
<path fill="none" stroke="green" stroke-width="0.52" d="M877.95,-146.37C880.6,-145.51 883.36,-144.71 886,-144.12 1078.35,-101.29 1316.6,-90.94 1398.1,-88.57"/>
<polygon fill="green" stroke="green" stroke-width="0.52" points="1398.64,-92.06 1408.54,-88.29 1398.45,-85.06 1398.64,-92.06"/>
</g>
<!-- &#45;21 -->
<g id="node21" class="node">
<title>&#45;21</title>
<polygon fill="lightgray" stroke="black" points="924.5,-162.12 895.5,-162.12 895.5,-144.12 924.5,-144.12 924.5,-162.12"/>
<text text-anchor="middle" x="910" y="-150.92" font-family="Times,serif" font-size="9.00">&#45;21</text>
</g>
<!-- &#45;21&#45;&gt;0 -->
<g id="edge151" class="edge">
<title>&#45;21&#45;&gt;0</title>
<path fill="none" stroke="red" stroke-width="0.11" d="M913.92,-143.89C922.92,-126.04 946.92,-83.92 981,-65.7 1064.79,-20.88 1367.66,-16.23 1457.02,-15.85"/>
<polygon fill="red" stroke="red" stroke-width="0.11" points="1457.06,-19.35 1467.05,-15.82 1457.04,-12.35 1457.06,-19.35"/>
</g>
<!-- &#45;21&#45;&gt;67 -->
<g id="edge41" class="edge">
<title>&#45;21&#45;&gt;67</title>
<path fill="none" stroke="red" stroke-width="0.13" d="M924.93,-146.29C927.59,-145.44 930.35,-144.67 933,-144.12 1160.39,-97.59 1235.74,-187.09 1454,-108.12 1456.11,-107.36 1458.2,-106.39 1460.23,-105.29"/>
<polygon fill="red" stroke="red" stroke-width="0.13" points="1462.13,-108.22 1468.64,-99.86 1458.34,-102.34 1462.13,-108.22"/>
</g>
<!-- &#45;21&#45;&gt;68 -->
<g id="edge42" class="edge">
<title>&#45;21&#45;&gt;68</title>
<path fill="none" stroke="red" stroke-width="0.29" d="M924.95,-146.39C927.61,-145.53 930.36,-144.73 933,-144.12 1106.67,-104.56 1321.33,-92.25 1398.06,-88.97"/>
<polygon fill="red" stroke="red" stroke-width="0.29" points="1398.51,-92.45 1408.36,-88.55 1398.23,-85.46 1398.51,-92.45"/>
</g>
<!-- &#45;22 -->
<g id="node22" class="node">
<title>&#45;22</title>
<polygon fill="lightgray" stroke="black" points="971.5,-162.12 942.5,-162.12 942.5,-144.12 971.5,-144.12 971.5,-162.12"/>
<text text-anchor="middle" x="957" y="-150.92" font-family="Times,serif" font-size="9.00">&#45;22</text>
</g>
<!-- &#45;22&#45;&gt;0 -->
<g id="edge152" class="edge">
<title>&#45;22&#45;&gt;0</title>
<path fill="none" stroke="green" stroke-width="0.2" d="M960.94,-143.92C969.96,-126.12 994.02,-84.1 1028,-65.7 1103.07,-25.05 1373.07,-17.52 1456.95,-16.15"/>
<polygon fill="green" stroke="green" stroke-width="0.2" points="1457.14,-19.64 1467.09,-16 1457.04,-12.64 1457.14,-19.64"/>
</g>
<!-- &#45;22&#45;&gt;67 -->
<g id="edge43" class="edge">
<title>&#45;22&#45;&gt;67</title>
<path fill="none" stroke="red" stroke-width="0.25" d="M971.94,-146.31C974.59,-145.45 977.35,-144.68 980,-144.12 1186.84,-101.06 1255.57,-180.68 1454,-108.12 1456.1,-107.36 1458.19,-106.38 1460.22,-105.27"/>
<polygon fill="red" stroke="red" stroke-width="0.25" points="1462.13,-108.21 1468.63,-99.84 1458.33,-102.33 1462.13,-108.21"/>
</g>
<!-- &#45;22&#45;&gt;68 -->
<g id="edge44" class="edge">
<title>&#45;22&#45;&gt;68</title>
<path fill="none" stroke="red" stroke-width="0.17" d="M971.96,-146.42C974.61,-145.55 977.37,-144.74 980,-144.12 1135.38,-107.76 1327.01,-93.65 1398.42,-89.42"/>
<polygon fill="red" stroke="red" stroke-width="0.17" points="1398.66,-92.92 1408.45,-88.85 1398.26,-85.93 1398.66,-92.92"/>
</g>
<!-- &#45;23 -->
<g id="node23" class="node">
<title>&#45;23</title>
<polygon fill="lightgray" stroke="black" points="1018.5,-162.12 989.5,-162.12 989.5,-144.12 1018.5,-144.12 1018.5,-162.12"/>
<text text-anchor="middle" x="1004" y="-150.92" font-family="Times,serif" font-size="9.00">&#45;23</text>
</g>
<!-- &#45;23&#45;&gt;0 -->
<g id="edge153" class="edge">
<title>&#45;23&#45;&gt;0</title>
<path fill="none" stroke="green" stroke-width="0.13" d="M1007.96,-143.95C1017.02,-126.21 1041.13,-84.31 1075,-65.7 1141.3,-29.26 1378.07,-18.97 1456.53,-16.52"/>
<polygon fill="green" stroke="green" stroke-width="0.13" points="1457.03,-20.01 1466.92,-16.22 1456.82,-13.01 1457.03,-20.01"/>
</g>
<!-- &#45;23&#45;&gt;67 -->
<g id="edge45" class="edge">
<title>&#45;23&#45;&gt;67</title>
<path fill="none" stroke="green" stroke-width="0.41" d="M1018.94,-146.32C1021.59,-145.47 1024.35,-144.69 1027,-144.12 1213.29,-104.53 1275.4,-174.27 1454,-108.12 1456.1,-107.35 1458.19,-106.36 1460.21,-105.26"/>
<polygon fill="green" stroke="green" stroke-width="0.41" points="1462.13,-108.19 1468.62,-99.81 1458.32,-102.31 1462.13,-108.19"/>
</g>
<!-- &#45;23&#45;&gt;68 -->
<g id="edge46" class="edge">
<title>&#45;23&#45;&gt;68</title>
<path fill="none" stroke="green" stroke-width="0.45" d="M1018.97,-146.45C1021.62,-145.58 1024.37,-144.76 1027,-144.12 1163.89,-111.04 1332.16,-95.27 1398.34,-90.01"/>
<polygon fill="green" stroke="green" stroke-width="0.45" points="1398.72,-93.49 1408.42,-89.23 1398.18,-86.51 1398.72,-93.49"/>
</g>
<!-- &#45;24 -->
<g id="node24" class="node">
<title>&#45;24</title>
<polygon fill="lightgray" stroke="black" points="1065.5,-162.12 1036.5,-162.12 1036.5,-144.12 1065.5,-144.12 1065.5,-162.12"/>
<text text-anchor="middle" x="1051" y="-150.92" font-family="Times,serif" font-size="9.00">&#45;24</text>
</g>
<!-- &#45;24&#45;&gt;0 -->
<g id="edge154" class="edge">
<title>&#45;24&#45;&gt;0</title>
<path fill="none" stroke="green" stroke-width="0.17" d="M1054.98,-143.99C1064.08,-126.33 1088.28,-84.57 1122,-65.7 1179.75,-33.37 1384.59,-20.55 1456.68,-16.98"/>
<polygon fill="green" stroke="green" stroke-width="0.17" points="1457.24,-20.45 1467.06,-16.48 1456.91,-13.46 1457.24,-20.45"/>
</g>
<!-- &#45;24&#45;&gt;67 -->
<g id="edge47" class="edge">
<title>&#45;24&#45;&gt;67</title>
<path fill="none" stroke="red" stroke-width="0.18" d="M1065.95,-146.35C1068.6,-145.49 1071.36,-144.7 1074,-144.12 1239.75,-108 1295.22,-167.86 1454,-108.12 1456.1,-107.34 1458.18,-106.35 1460.2,-105.23"/>
<polygon fill="red" stroke="red" stroke-width="0.18" points="1462.12,-108.16 1468.61,-99.78 1458.31,-102.29 1462.12,-108.16"/>
</g>
<!-- &#45;24&#45;&gt;68 -->
<g id="edge48" class="edge">
<title>&#45;24&#45;&gt;68</title>
<path fill="none" stroke="red" stroke-width="0.29" d="M1065.98,-146.49C1068.63,-145.61 1071.38,-144.78 1074,-144.12 1192.7,-114.28 1338.02,-97.06 1398.49,-90.72"/>
<polygon fill="red" stroke="red" stroke-width="0.29" points="1399.18,-94.17 1408.77,-89.66 1398.47,-87.21 1399.18,-94.17"/>
</g>
<!-- &#45;25 -->
<g id="node25" class="node">
<title>&#45;25</title>
<polygon fill="lightgray" stroke="black" points="1112.5,-162.12 1083.5,-162.12 1083.5,-144.12 1112.5,-144.12 1112.5,-162.12"/>
<text text-anchor="middle" x="1098" y="-150.92" font-family="Times,serif" font-size="9.00">&#45;25</text>
</g>
<!-- &#45;25&#45;&gt;0 -->
<g id="edge155" class="edge">
<title>&#45;25&#45;&gt;0</title>
<path fill="none" stroke="red" stroke-width="0.28" d="M1102.01,-144.04C1111.17,-126.48 1135.47,-84.92 1169,-65.7 1218.3,-37.44 1391.81,-22.33 1456.99,-17.55"/>
<polygon fill="red" stroke="red" stroke-width="0.28" points="1457.45,-21.02 1467.18,-16.82 1456.95,-14.04 1457.45,-21.02"/>
</g>
<!-- &#45;25&#45;&gt;67 -->
<g id="edge49" class="edge">
<title>&#45;25&#45;&gt;67</title>
<path fill="none" stroke="green" stroke-width="0.47" d="M1112.95,-146.38C1115.6,-145.52 1118.36,-144.72 1121,-144.12 1266.23,-111.46 1315.02,-161.47 1454,-108.12 1456.09,-107.32 1458.17,-106.32 1460.19,-105.2"/>
<polygon fill="green" stroke="green" stroke-width="0.47" points="1462.12,-108.12 1468.59,-99.74 1458.3,-102.26 1462.12,-108.12"/>
</g>
<!-- &#45;25&#45;&gt;68 -->
<g id="edge50" class="edge">
<title>&#45;25&#45;&gt;68</title>
<path fill="none" stroke="green" stroke-width="0.29" d="M1112.99,-146.54C1115.64,-145.66 1118.38,-144.82 1121,-144.12 1221.65,-117.54 1344.18,-99.13 1398.6,-91.65"/>
<polygon fill="green" stroke="green" stroke-width="0.29" points="1399.41,-95.07 1408.85,-90.26 1398.47,-88.13 1399.41,-95.07"/>
</g>
<!-- &#45;26 -->
<g id="node26" class="node">
<title>&#45;26</title>
<polygon fill="lightgray" stroke="black" points="1159.5,-162.12 1130.5,-162.12 1130.5,-144.12 1159.5,-144.12 1159.5,-162.12"/>
<text text-anchor="middle" x="1145" y="-150.92" font-family="Times,serif" font-size="9.00">&#45;26</text>
</g>
<!-- &#45;26&#45;&gt;0 -->
<g id="edge156" class="edge">
<title>&#45;26&#45;&gt;0</title>
<path fill="none" stroke="red" stroke-width="0.32" d="M1149.05,-144.1C1158.29,-126.68 1182.74,-85.37 1216,-65.7 1294.58,-19.22 1407.11,-14.58 1456.79,-15.04"/>
<polygon fill="red" stroke="red" stroke-width="0.32" points="1456.88,-18.54 1466.94,-15.22 1457,-11.54 1456.88,-18.54"/>
</g>
<!-- &#45;26&#45;&gt;67 -->
<g id="edge51" class="edge">
<title>&#45;26&#45;&gt;67</title>
<path fill="none" stroke="red" stroke-width="0.26" d="M1159.96,-146.42C1162.61,-145.55 1165.37,-144.74 1168,-144.12 1292.74,-114.92 1334.8,-155.08 1454,-108.12 1456.08,-107.3 1458.16,-106.29 1460.18,-105.16"/>
<polygon fill="red" stroke="red" stroke-width="0.26" points="1462.11,-108.08 1468.57,-99.68 1458.28,-102.22 1462.11,-108.08"/>
</g>
<!-- &#45;26&#45;&gt;68 -->
<g id="edge52" class="edge">
<title>&#45;26&#45;&gt;68</title>
<path fill="none" stroke="red" stroke-width="0.19" d="M1159.52,-146.78C1162.31,-145.83 1165.23,-144.9 1168,-144.12 1250.97,-120.78 1351.2,-101.5 1399,-92.84"/>
<polygon fill="red" stroke="red" stroke-width="0.19" points="1399.69,-96.27 1408.92,-91.06 1398.46,-89.38 1399.69,-96.27"/>
</g>
<!-- &#45;27 -->
<g id="node27" class="node">
<title>&#45;27</title>
<polygon fill="lightgray" stroke="black" points="1206.5,-162.12 1177.5,-162.12 1177.5,-144.12 1206.5,-144.12 1206.5,-162.12"/>
<text text-anchor="middle" x="1192" y="-150.92" font-family="Times,serif" font-size="9.00">&#45;27</text>
</g>
<!-- &#45;27&#45;&gt;0 -->
<g id="edge157" class="edge">
<title>&#45;27&#45;&gt;0</title>
<path fill="none" stroke="green" stroke-width="0.2" d="M1196.15,-143.94C1205.42,-126.55 1229.54,-85.89 1262,-65.7 1324.56,-26.79 1413.98,-18.14 1457,-16.3"/>
<polygon fill="green" stroke="green" stroke-width="0.2" points="1457.25,-19.79 1467.13,-15.95 1457.02,-12.8 1457.25,-19.79"/>
</g>
<!-- &#45;27&#45;&gt;67 -->
<g id="edge53" class="edge">
<title>&#45;27&#45;&gt;67</title>
<path fill="none" stroke="red" stroke-width="0.14" d="M1206.97,-146.47C1209.62,-145.6 1212.37,-144.77 1215,-144.12 1319.29,-118.37 1354.54,-148.71 1454,-108.12 1456.07,-107.28 1458.14,-106.25 1460.16,-105.11"/>
<polygon fill="red" stroke="red" stroke-width="0.14" points="1462.1,-108.02 1468.54,-99.6 1458.26,-102.17 1462.1,-108.02"/>
</g>
<!-- &#45;27&#45;&gt;68 -->
<g id="edge54" class="edge">
<title>&#45;27&#45;&gt;68</title>
<path fill="none" stroke="red" stroke-width="0.27" d="M1206.55,-146.88C1209.34,-145.92 1212.25,-144.97 1215,-144.12 1280.51,-124.08 1358.66,-104.44 1399.32,-94.54"/>
<polygon fill="red" stroke="red" stroke-width="0.27" points="1400.39,-97.88 1409.28,-92.13 1398.74,-91.08 1400.39,-97.88"/>
</g>
<!-- &#45;28 -->
<g id="node28" class="node">
<title>&#45;28</title>
<polygon fill="lightgray" stroke="black" points="1253.5,-162.12 1224.5,-162.12 1224.5,-144.12 1253.5,-144.12 1253.5,-162.12"/>
<text text-anchor="middle" x="1239" y="-150.92" font-family="Times,serif" font-size="9.00">&#45;28</text>
</g>
<!-- &#45;28&#45;&gt;0 -->
<g id="edge158" class="edge">
<title>&#45;28&#45;&gt;0</title>
<path fill="none" stroke="green" stroke-width="0.26" d="M1242.96,-144.06C1251.8,-126.93 1274.84,-86.73 1306,-65.7 1353.23,-33.82 1420.72,-22.14 1456.86,-18"/>
<polygon fill="green" stroke="green" stroke-width="0.26" points="1457.43,-21.46 1467.02,-16.95 1456.71,-14.5 1457.43,-21.46"/>
</g>
<!-- &#45;28&#45;&gt;67 -->
<g id="edge55" class="edge">
<title>&#45;28&#45;&gt;67</title>
<path fill="none" stroke="green" stroke-width="0.71" d="M1253.99,-146.55C1256.64,-145.67 1259.39,-144.82 1262,-144.12 1345.9,-121.8 1374.21,-142.36 1454,-108.12 1456.06,-107.24 1458.11,-106.18 1460.12,-105.02"/>
<polygon fill="green" stroke="green" stroke-width="0.71" points="1462.08,-107.93 1468.49,-99.49 1458.22,-102.09 1462.08,-107.93"/>
</g>
<!-- &#45;28&#45;&gt;68 -->
<g id="edge56" class="edge">
<title>&#45;28&#45;&gt;68</title>
<path fill="none" stroke="green" stroke-width="0.62" d="M1253.6,-147.03C1256.38,-146.06 1259.28,-145.06 1262,-144.12 1310.54,-127.41 1367.2,-108.17 1399.91,-97.08"/>
<polygon fill="green" stroke="green" stroke-width="0.62" points="1401.3,-100.31 1409.65,-93.78 1399.05,-93.68 1401.3,-100.31"/>
</g>
<!-- &#45;29 -->
<g id="node29" class="node">
<title>&#45;29</title>
<polygon fill="lightgray" stroke="black" points="1300.5,-162.12 1271.5,-162.12 1271.5,-144.12 1300.5,-144.12 1300.5,-162.12"/>
<text text-anchor="middle" x="1286" y="-150.92" font-family="Times,serif" font-size="9.00">&#45;29</text>
</g>
<!-- &#45;29&#45;&gt;0 -->
<g id="edge159" class="edge">
<title>&#45;29&#45;&gt;0</title>
<path fill="none" stroke="green" stroke-width="0.51" d="M1289.45,-143.97C1297.03,-127 1316.73,-87.65 1345,-65.7 1378.85,-39.4 1427.88,-26.08 1457.18,-20.08"/>
<polygon fill="green" stroke="green" stroke-width="0.51" points="1458.21,-23.44 1467.37,-18.12 1456.89,-16.57 1458.21,-23.44"/>
</g>
<!-- &#45;29&#45;&gt;67 -->
<g id="edge57" class="edge">
<title>&#45;29&#45;&gt;67</title>
<path fill="none" stroke="red" stroke-width="0.43" d="M1300.54,-146.84C1303.33,-145.89 1306.24,-144.94 1309,-144.12 1372.65,-125.2 1393.76,-136.07 1454,-108.12 1456.03,-107.18 1458.07,-106.08 1460.06,-104.9"/>
<polygon fill="red" stroke="red" stroke-width="0.43" points="1462.04,-107.78 1468.41,-99.31 1458.15,-101.96 1462.04,-107.78"/>
</g>
<!-- &#45;29&#45;&gt;68 -->
<g id="edge58" class="edge">
<title>&#45;29&#45;&gt;68</title>
<path fill="none" stroke="green" stroke-width="0.38" d="M1300.56,-145.49C1324.33,-134.67 1371.77,-113.06 1401.31,-99.61"/>
<polygon fill="green" stroke="green" stroke-width="0.38" points="1402.93,-102.72 1410.58,-95.39 1400.02,-96.35 1402.93,-102.72"/>
</g>
<!-- &#45;30 -->
<g id="node30" class="node">
<title>&#45;30</title>
<polygon fill="lightgray" stroke="black" points="1347.5,-162.12 1318.5,-162.12 1318.5,-144.12 1347.5,-144.12 1347.5,-162.12"/>
<text text-anchor="middle" x="1333" y="-150.92" font-family="Times,serif" font-size="9.00">&#45;30</text>
</g>
<!-- &#45;30&#45;&gt;0 -->
<g id="edge160" class="edge">
<title>&#45;30&#45;&gt;0</title>
<path fill="none" stroke="red" stroke-width="0.38" d="M1335,-143.89C1339.45,-127.11 1351.69,-88.63 1375,-65.7 1398.31,-42.77 1434.13,-29.05 1457.81,-21.98"/>
<polygon fill="red" stroke="red" stroke-width="0.38" points="1459.07,-25.26 1467.75,-19.19 1457.17,-18.52 1459.07,-25.26"/>
</g>
<!-- &#45;30&#45;&gt;67 -->
<g id="edge59" class="edge">
<title>&#45;30&#45;&gt;67</title>
<path fill="none" stroke="red" stroke-width="0.2" d="M1347.59,-146.94C1378.7,-135.87 1449.09,-110.73 1454,-108.12 1455.79,-107.18 1457.59,-106.13 1459.37,-105.02"/>
<polygon fill="red" stroke="red" stroke-width="0.2" points="1461.65,-107.71 1467.96,-99.2 1457.72,-101.91 1461.65,-107.71"/>
</g>
<!-- &#45;30&#45;&gt;68 -->
<g id="edge60" class="edge">
<title>&#45;30&#45;&gt;68</title>
<path fill="none" stroke="green" stroke-width="0.28" d="M1344.91,-143.99C1359.66,-133.91 1385.14,-116.51 1403.81,-103.75"/>
<polygon fill="green" stroke="green" stroke-width="0.28" points="1405.81,-106.62 1412.1,-98.09 1401.87,-100.84 1405.81,-106.62"/>
</g>
<!-- &#45;31 -->
<g id="node31" class="node">
<title>&#45;31</title>
<polygon fill="lightgray" stroke="black" points="1394.5,-162.12 1365.5,-162.12 1365.5,-144.12 1394.5,-144.12 1394.5,-162.12"/>
<text text-anchor="middle" x="1380" y="-150.92" font-family="Times,serif" font-size="9.00">&#45;31</text>
</g>
<!-- &#45;31&#45;&gt;0 -->
<g id="edge161" class="edge">
<title>&#45;31&#45;&gt;0</title>
<path fill="none" stroke="red" stroke-width="0.37" d="M1378.87,-143.89C1377.07,-127.45 1375.28,-90.05 1392,-65.7 1407.56,-43.02 1436.97,-29.59 1457.93,-22.48"/>
<polygon fill="red" stroke="red" stroke-width="0.37" points="1459.23,-25.75 1467.72,-19.41 1457.13,-19.07 1459.23,-25.75"/>
</g>
<!-- &#45;31&#45;&gt;67 -->
<g id="edge61" class="edge">
<title>&#45;31&#45;&gt;67</title>
<path fill="none" stroke="green" stroke-width="0.15" d="M1394.42,-144.06C1409.5,-135.5 1433.76,-121.41 1454,-108.12 1455.69,-107.01 1457.42,-105.85 1459.16,-104.65"/>
<polygon fill="green" stroke="green" stroke-width="0.15" points="1461.5,-107.28 1467.64,-98.65 1457.45,-101.57 1461.5,-107.28"/>
</g>
<!-- &#45;31&#45;&gt;68 -->
<g id="edge62" class="edge">
<title>&#45;31&#45;&gt;68</title>
<path fill="none" stroke="red" stroke-width="0.32" d="M1385.95,-143.99C1392.02,-135.71 1401.7,-122.48 1410.14,-110.95"/>
<polygon fill="red" stroke="red" stroke-width="0.32" points="1413.18,-112.71 1416.27,-102.58 1407.54,-108.58 1413.18,-112.71"/>
</g>
<!-- &#45;32 -->
<g id="node32" class="node">
<title>&#45;32</title>
<polygon fill="lightgray" stroke="black" points="1441.5,-162.12 1412.5,-162.12 1412.5,-144.12 1441.5,-144.12 1441.5,-162.12"/>
<text text-anchor="middle" x="1427" y="-150.92" font-family="Times,serif" font-size="9.00">&#45;32</text>
</g>
<!-- &#45;32&#45;&gt;0 -->
<g id="edge162" class="edge">
<title>&#45;32&#45;&gt;0</title>
<path fill="none" stroke="green" stroke-width="0.24" d="M1420.39,-144.05C1408.26,-128.21 1385.05,-92.28 1400,-65.7 1412.38,-43.69 1438.85,-30.27 1458.38,-22.98"/>
<polygon fill="green" stroke="green" stroke-width="0.24" points="1459.54,-26.28 1467.85,-19.71 1457.26,-19.66 1459.54,-26.28"/>
</g>
<!-- &#45;32&#45;&gt;67 -->
<g id="edge63" class="edge">
<title>&#45;32&#45;&gt;67</title>
<path fill="none" stroke="green" stroke-width="0.38" d="M1433.97,-143.99C1441.39,-135.33 1453.44,-121.25 1463.62,-109.37"/>
<polygon fill="green" stroke="green" stroke-width="0.38" points="1466.44,-111.46 1470.29,-101.59 1461.12,-106.9 1466.44,-111.46"/>
</g>
<!-- &#45;32&#45;&gt;68 -->
<g id="edge64" class="edge">
<title>&#45;32&#45;&gt;68</title>
<path fill="none" stroke="green" stroke-width="0.11" d="M1427,-143.99C1427,-136.83 1427,-125.97 1427,-115.7"/>
<polygon fill="green" stroke="green" stroke-width="0.11" points="1430.5,-115.4 1427,-105.4 1423.5,-115.4 1430.5,-115.4"/>
</g>
<!-- &#45;33 -->
<g id="node33" class="node">
<title>&#45;33</title>
<polygon fill="lightgray" stroke="black" points="2569.5,-162.12 2540.5,-162.12 2540.5,-144.12 2569.5,-144.12 2569.5,-162.12"/>
<text text-anchor="middle" x="2555" y="-150.92" font-family="Times,serif" font-size="9.00">&#45;33</text>
</g>
<!-- &#45;33&#45;&gt;0 -->
<g id="edge163" class="edge">
<title>&#45;33&#45;&gt;0</title>
<path fill="none" stroke="red" stroke-width="0.27" d="M2548.2,-143.98C2532.56,-125.92 2491.9,-82.76 2447,-65.7 2356.92,-31.46 1651.12,-18.52 1507.47,-16.23"/>
<polygon fill="red" stroke="red" stroke-width="0.27" points="1507.11,-12.73 1497.06,-16.07 1507,-19.73 1507.11,-12.73"/>
</g>
<!-- &#45;33&#45;&gt;67 -->
<g id="edge65" class="edge">
<title>&#45;33&#45;&gt;67</title>
<path fill="none" stroke="red" stroke-width="0.37" d="M2540.44,-146.58C2537.36,-145.61 2534.11,-144.71 2531,-144.12 2327.34,-105.45 1658.2,-91.14 1510.86,-88.41"/>
<polygon fill="red" stroke="red" stroke-width="0.37" points="1510.49,-84.91 1500.43,-88.22 1510.36,-91.91 1510.49,-84.91"/>
</g>
<!-- &#45;33&#45;&gt;68 -->
<g id="edge66" class="edge">
<title>&#45;33&#45;&gt;68</title>
<path fill="none" stroke="red" stroke-width="0.3" d="M2540.45,-146.53C2537.37,-145.56 2534.11,-144.68 2531,-144.12 2295.52,-101.86 1681.39,-185.51 1455,-108.12 1452.88,-107.4 1450.78,-106.46 1448.74,-105.37"/>
<polygon fill="red" stroke="red" stroke-width="0.3" points="1450.63,-102.42 1440.32,-99.97 1446.85,-108.32 1450.63,-102.42"/>
</g>
<!-- &#45;34 -->
<g id="node34" class="node">
<title>&#45;34</title>
<polygon fill="lightgray" stroke="black" points="2710.5,-162.12 2681.5,-162.12 2681.5,-144.12 2710.5,-144.12 2710.5,-162.12"/>
<text text-anchor="middle" x="2696" y="-150.92" font-family="Times,serif" font-size="9.00">&#45;34</text>
</g>
<!-- &#45;34&#45;&gt;0 -->
<g id="edge164" class="edge">
<title>&#45;34&#45;&gt;0</title>
<path fill="none" stroke="red" stroke-width="0.25" d="M2689.21,-143.96C2673.58,-125.85 2632.95,-82.62 2588,-65.7 2483.8,-26.48 1662.21,-17.42 1507.18,-16.05"/>
<polygon fill="red" stroke="red" stroke-width="0.25" points="1506.85,-12.55 1496.82,-15.96 1506.79,-19.55 1506.85,-12.55"/>
</g>
<!-- &#45;34&#45;&gt;67 -->
<g id="edge67" class="edge">
<title>&#45;34&#45;&gt;67</title>
<path fill="none" stroke="green" stroke-width="0.11" d="M2681.45,-146.57C2678.37,-145.59 2675.11,-144.7 2672,-144.12 2439.2,-100.68 1670.65,-89.98 1511.14,-88.21"/>
<polygon fill="green" stroke="green" stroke-width="0.11" points="1510.76,-84.7 1500.73,-88.09 1510.69,-91.7 1510.76,-84.7"/>
</g>
<!-- &#45;34&#45;&gt;68 -->
<g id="edge68" class="edge">
<title>&#45;34&#45;&gt;68</title>
<path fill="none" stroke="red" stroke-width="0.15" d="M2681.45,-146.52C2678.37,-145.55 2675.11,-144.68 2672,-144.12 2538.8,-120.48 1583.09,-151.63 1455,-108.12 1452.88,-107.4 1450.78,-106.46 1448.74,-105.38"/>
<polygon fill="red" stroke="red" stroke-width="0.15" points="1450.63,-102.43 1440.32,-99.99 1446.85,-108.33 1450.63,-102.43"/>
</g>
<!-- &#45;35 -->
<g id="node35" class="node">
<title>&#45;35</title>
<polygon fill="lightgray" stroke="black" points="2663.5,-162.12 2634.5,-162.12 2634.5,-144.12 2663.5,-144.12 2663.5,-162.12"/>
<text text-anchor="middle" x="2649" y="-150.92" font-family="Times,serif" font-size="9.00">&#45;35</text>
</g>
<!-- &#45;35&#45;&gt;0 -->
<g id="edge165" class="edge">
<title>&#45;35&#45;&gt;0</title>
<path fill="none" stroke="green" stroke-width="0.13" d="M2642.21,-143.96C2626.58,-125.87 2585.93,-82.66 2541,-65.7 2441.46,-28.12 1657.86,-17.76 1507.06,-16.1"/>
<polygon fill="green" stroke="green" stroke-width="0.13" points="1506.99,-12.6 1496.95,-16 1506.91,-19.6 1506.99,-12.6"/>
</g>
<!-- &#45;35&#45;&gt;67 -->
<g id="edge69" class="edge">
<title>&#45;35&#45;&gt;67</title>
<path fill="none" stroke="red" stroke-width="0.34" d="M2634.44,-146.57C2631.37,-145.6 2628.11,-144.71 2625,-144.12 2401.65,-102.22 1664.77,-90.32 1510.48,-88.26"/>
<polygon fill="red" stroke="red" stroke-width="0.34" points="1510.44,-84.76 1500.4,-88.13 1510.35,-91.76 1510.44,-84.76"/>
</g>
<!-- &#45;35&#45;&gt;68 -->
<g id="edge70" class="edge">
<title>&#45;35&#45;&gt;68</title>
<path fill="none" stroke="green" stroke-width="0.62" d="M2634.45,-146.53C2631.37,-145.55 2628.11,-144.68 2625,-144.12 2496.95,-121.32 1578.13,-150.03 1455,-108.12 1452.88,-107.4 1450.78,-106.46 1448.74,-105.38"/>
<polygon fill="green" stroke="green" stroke-width="0.62" points="1450.63,-102.43 1440.32,-99.98 1446.85,-108.32 1450.63,-102.43"/>
</g>
<!-- &#45;36 -->
<g id="node36" class="node">
<title>&#45;36</title>
<polygon fill="lightgray" stroke="black" points="2804.5,-162.12 2775.5,-162.12 2775.5,-144.12 2804.5,-144.12 2804.5,-162.12"/>
<text text-anchor="middle" x="2790" y="-150.92" font-family="Times,serif" font-size="9.00">&#45;36</text>
</g>
<!-- &#45;36&#45;&gt;0 -->
<g id="edge166" class="edge">
<title>&#45;36&#45;&gt;0</title>
<path fill="none" stroke="green" stroke-width="0.37" d="M2783.21,-143.94C2767.6,-125.82 2726.98,-82.54 2682,-65.7 2568.41,-23.18 1670.08,-16.77 1507.26,-15.96"/>
<polygon fill="green" stroke="green" stroke-width="0.37" points="1506.85,-12.45 1496.83,-15.91 1506.81,-19.45 1506.85,-12.45"/>
</g>
<!-- &#45;36&#45;&gt;67 -->
<g id="edge71" class="edge">
<title>&#45;36&#45;&gt;67</title>
<path fill="none" stroke="red" stroke-width="0.52" d="M2775.08,-146.23C2772.42,-145.39 2769.66,-144.63 2767,-144.12 2514.55,-95.78 1677,-88.93 1510.81,-88.04"/>
<polygon fill="red" stroke="red" stroke-width="0.52" points="1510.45,-84.53 1500.43,-87.98 1510.41,-91.53 1510.45,-84.53"/>
</g>
<!-- &#45;36&#45;&gt;68 -->
<g id="edge72" class="edge">
<title>&#45;36&#45;&gt;68</title>
<path fill="none" stroke="red" stroke-width="0.26" d="M2775.09,-146.2C2772.43,-145.36 2769.66,-144.61 2767,-144.12 2623.55,-117.86 1593.14,-154.88 1455,-108.12 1452.88,-107.41 1450.78,-106.47 1448.74,-105.39"/>
<polygon fill="red" stroke="red" stroke-width="0.26" points="1450.63,-102.44 1440.32,-99.99 1446.85,-108.33 1450.63,-102.44"/>
</g>
<!-- &#45;37 -->
<g id="node37" class="node">
<title>&#45;37</title>
<polygon fill="lightgray" stroke="black" points="2757.5,-162.12 2728.5,-162.12 2728.5,-144.12 2757.5,-144.12 2757.5,-162.12"/>
<text text-anchor="middle" x="2743" y="-150.92" font-family="Times,serif" font-size="9.00">&#45;37</text>
</g>
<!-- &#45;37&#45;&gt;0 -->
<g id="edge167" class="edge">
<title>&#45;37&#45;&gt;0</title>
<path fill="none" stroke="red" stroke-width="0.43" d="M2736.21,-143.95C2720.59,-125.83 2679.97,-82.58 2635,-65.7 2526.12,-24.83 1666.34,-17.09 1507.27,-16"/>
<polygon fill="red" stroke="red" stroke-width="0.43" points="1507.07,-12.5 1497.04,-15.94 1507.02,-19.5 1507.07,-12.5"/>
</g>
<!-- &#45;37&#45;&gt;67 -->
<g id="edge73" class="edge">
<title>&#45;37&#45;&gt;67</title>
<path fill="none" stroke="green" stroke-width="0.58" d="M2728.08,-146.24C2725.42,-145.39 2722.66,-144.64 2720,-144.12 2477.32,-97.44 1673.29,-89.28 1510.78,-88.09"/>
<polygon fill="green" stroke="green" stroke-width="0.58" points="1510.64,-84.59 1500.61,-88.02 1510.59,-91.59 1510.64,-84.59"/>
</g>
<!-- &#45;37&#45;&gt;68 -->
<g id="edge74" class="edge">
<title>&#45;37&#45;&gt;68</title>
<path fill="none" stroke="green" stroke-width="0.69" d="M2728.08,-146.2C2725.43,-145.36 2722.66,-144.61 2720,-144.12 2581.7,-118.73 1588.17,-153.27 1455,-108.12 1452.88,-107.41 1450.78,-106.47 1448.74,-105.38"/>
<polygon fill="green" stroke="green" stroke-width="0.69" points="1450.63,-102.44 1440.32,-99.99 1446.85,-108.33 1450.63,-102.44"/>
</g>
<!-- &#45;38 -->
<g id="node38" class="node">
<title>&#45;38</title>
<polygon fill="lightgray" stroke="black" points="2851.5,-162.12 2822.5,-162.12 2822.5,-144.12 2851.5,-144.12 2851.5,-162.12"/>
<text text-anchor="middle" x="2837" y="-150.92" font-family="Times,serif" font-size="9.00">&#45;38</text>
</g>
<!-- &#45;38&#45;&gt;0 -->
<g id="edge168" class="edge">
<title>&#45;38&#45;&gt;0</title>
<path fill="none" stroke="red" stroke-width="0.35" d="M2830.14,-143.94C2814.34,-125.8 2773.29,-82.5 2728,-65.7 2609.69,-21.82 1673.44,-16.52 1507.2,-15.92"/>
<polygon fill="red" stroke="red" stroke-width="0.35" points="1506.99,-12.42 1496.97,-15.89 1506.96,-19.42 1506.99,-12.42"/>
</g>
<!-- &#45;38&#45;&gt;67 -->
<g id="edge75" class="edge">
<title>&#45;38&#45;&gt;67</title>
<path fill="none" stroke="red" stroke-width="0.28" d="M2822.08,-146.23C2819.42,-145.39 2816.66,-144.63 2814,-144.12 2551.76,-94.11 1680.54,-88.59 1510.81,-87.98"/>
<polygon fill="red" stroke="red" stroke-width="0.28" points="1510.67,-84.48 1500.65,-87.95 1510.64,-91.48 1510.67,-84.48"/>
</g>
<!-- &#45;38&#45;&gt;68 -->
<g id="edge76" class="edge">
<title>&#45;38&#45;&gt;68</title>
<path fill="none" stroke="green" stroke-width="0.22" d="M2822.09,-146.2C2819.43,-145.35 2816.66,-144.61 2814,-144.12 2665.4,-116.99 1598.1,-156.48 1455,-108.12 1452.88,-107.41 1450.78,-106.47 1448.74,-105.39"/>
<polygon fill="green" stroke="green" stroke-width="0.22" points="1450.63,-102.44 1440.32,-100 1446.85,-108.34 1450.63,-102.44"/>
</g>
<!-- &#45;39 -->
<g id="node39" class="node">
<title>&#45;39</title>
<polygon fill="lightgray" stroke="black" points="1488.5,-162.12 1459.5,-162.12 1459.5,-144.12 1488.5,-144.12 1488.5,-162.12"/>
<text text-anchor="middle" x="1474" y="-150.92" font-family="Times,serif" font-size="9.00">&#45;39</text>
</g>
<!-- &#45;39&#45;&gt;0 -->
<g id="edge169" class="edge">
<title>&#45;39&#45;&gt;0</title>
<path fill="none" stroke="red" stroke-width="0.12" d="M1483.22,-144.12C1491.77,-136.03 1503.92,-122.68 1509,-108.12 1515.22,-90.32 1513.63,-83.98 1509,-65.7 1506.37,-55.33 1501.11,-44.78 1495.92,-36.07"/>
<polygon fill="red" stroke="red" stroke-width="0.12" points="1498.76,-34.01 1490.45,-27.44 1492.85,-37.76 1498.76,-34.01"/>
</g>
<!-- &#45;39&#45;&gt;67 -->
<g id="edge77" class="edge">
<title>&#45;39&#45;&gt;67</title>
<path fill="none" stroke="red" stroke-width="0.29" d="M1475.01,-143.99C1475.92,-136.75 1477.29,-125.74 1478.58,-115.38"/>
<polygon fill="red" stroke="red" stroke-width="0.29" points="1482.06,-115.76 1479.82,-105.4 1475.11,-114.89 1482.06,-115.76"/>
</g>
<!-- &#45;39&#45;&gt;68 -->
<g id="edge78" class="edge">
<title>&#45;39&#45;&gt;68</title>
<path fill="none" stroke="red" stroke-width="0.55" d="M1468.05,-143.99C1461.98,-135.71 1452.3,-122.48 1443.86,-110.95"/>
<polygon fill="red" stroke="red" stroke-width="0.55" points="1446.46,-108.58 1437.73,-102.58 1440.82,-112.71 1446.46,-108.58"/>
</g>
<!-- &#45;40 -->
<g id="node40" class="node">
<title>&#45;40</title>
<polygon fill="lightgray" stroke="black" points="1535.5,-162.12 1506.5,-162.12 1506.5,-144.12 1535.5,-144.12 1535.5,-162.12"/>
<text text-anchor="middle" x="1521" y="-150.92" font-family="Times,serif" font-size="9.00">&#45;40</text>
</g>
<!-- &#45;40&#45;&gt;0 -->
<g id="edge170" class="edge">
<title>&#45;40&#45;&gt;0</title>
<path fill="none" stroke="green" stroke-width="0.24" d="M1523.7,-143.68C1528.29,-127.81 1536.21,-92.69 1526,-65.7 1520.96,-52.37 1510.55,-40.31 1501.12,-31.38"/>
<polygon fill="green" stroke="green" stroke-width="0.24" points="1503.37,-28.7 1493.57,-24.67 1498.72,-33.93 1503.37,-28.7"/>
</g>
<!-- &#45;40&#45;&gt;67 -->
<g id="edge79" class="edge">
<title>&#45;40&#45;&gt;67</title>
<path fill="none" stroke="green" stroke-width="0.33" d="M1516.06,-143.99C1511.14,-135.9 1503.36,-123.08 1496.47,-111.74"/>
<polygon fill="green" stroke="green" stroke-width="0.33" points="1499.39,-109.81 1491.21,-103.08 1493.41,-113.44 1499.39,-109.81"/>
</g>
<!-- &#45;40&#45;&gt;68 -->
<g id="edge80" class="edge">
<title>&#45;40&#45;&gt;68</title>
<path fill="none" stroke="green" stroke-width="0.21" d="M1508.25,-143.83C1494.89,-135.09 1473.33,-120.84 1455,-108.12 1453.34,-106.97 1451.63,-105.77 1449.91,-104.56"/>
<polygon fill="green" stroke="green" stroke-width="0.21" points="1451.63,-101.48 1441.46,-98.51 1447.55,-107.17 1451.63,-101.48"/>
</g>
<!-- &#45;41 -->
<g id="node41" class="node">
<title>&#45;41</title>
<polygon fill="lightgray" stroke="black" points="1582.5,-162.12 1553.5,-162.12 1553.5,-144.12 1582.5,-144.12 1582.5,-162.12"/>
<text text-anchor="middle" x="1568" y="-150.92" font-family="Times,serif" font-size="9.00">&#45;41</text>
</g>
<!-- &#45;41&#45;&gt;0 -->
<g id="edge171" class="edge">
<title>&#45;41&#45;&gt;0</title>
<path fill="none" stroke="green" stroke-width="0.33" d="M1567.25,-143.82C1565.45,-127.58 1559.7,-90.98 1543,-65.7 1532.84,-50.31 1516.45,-37.3 1503.22,-28.43"/>
<polygon fill="green" stroke="green" stroke-width="0.33" points="1504.99,-25.41 1494.68,-22.98 1501.22,-31.31 1504.99,-25.41"/>
</g>
<!-- &#45;41&#45;&gt;67 -->
<g id="edge81" class="edge">
<title>&#45;41&#45;&gt;67</title>
<path fill="none" stroke="red" stroke-width="0.46" d="M1557.11,-143.99C1544.02,-134.22 1521.72,-117.57 1504.81,-104.94"/>
<polygon fill="red" stroke="red" stroke-width="0.46" points="1506.64,-101.94 1496.53,-98.76 1502.45,-107.55 1506.64,-101.94"/>
</g>
<!-- &#45;41&#45;&gt;68 -->
<g id="edge82" class="edge">
<title>&#45;41&#45;&gt;68</title>
<path fill="none" stroke="red" stroke-width="0.42" d="M1553.26,-146.91C1526.87,-137.5 1472.66,-117.73 1455,-108.12 1453.22,-107.16 1451.43,-106.09 1449.65,-104.98"/>
<polygon fill="red" stroke="red" stroke-width="0.42" points="1451.31,-101.87 1441.07,-99.13 1447.37,-107.66 1451.31,-101.87"/>
</g>
<!-- &#45;42 -->
<g id="node42" class="node">
<title>&#45;42</title>
<polygon fill="lightgray" stroke="black" points="1629.5,-162.12 1600.5,-162.12 1600.5,-144.12 1629.5,-144.12 1629.5,-162.12"/>
<text text-anchor="middle" x="1615" y="-150.92" font-family="Times,serif" font-size="9.00">&#45;42</text>
</g>
<!-- &#45;42&#45;&gt;0 -->
<g id="edge172" class="edge">
<title>&#45;42&#45;&gt;0</title>
<path fill="none" stroke="red" stroke-width="0.2" d="M1612.09,-144.09C1605.82,-127.68 1589.67,-89.84 1566,-65.7 1548.47,-47.82 1523.22,-33.98 1504.98,-25.47"/>
<polygon fill="red" stroke="red" stroke-width="0.2" points="1506.22,-22.19 1495.67,-21.3 1503.36,-28.58 1506.22,-22.19"/>
</g>
<!-- &#45;42&#45;&gt;67 -->
<g id="edge83" class="edge">
<title>&#45;42&#45;&gt;67</title>
<path fill="none" stroke="green" stroke-width="0.37" d="M1600.26,-145.01C1577.87,-134.2 1535.01,-113.51 1507.5,-100.22"/>
<polygon fill="green" stroke="green" stroke-width="0.37" points="1509,-97.06 1498.47,-95.86 1505.95,-103.36 1509,-97.06"/>
</g>
<!-- &#45;42&#45;&gt;68 -->
<g id="edge84" class="edge">
<title>&#45;42&#45;&gt;68</title>
<path fill="none" stroke="green" stroke-width="0.26" d="M1600.32,-147.07C1597.25,-146.06 1594.03,-145.03 1591,-144.12 1531.09,-126.23 1511.52,-134.87 1455,-108.12 1453.17,-107.26 1451.34,-106.27 1449.53,-105.21"/>
<polygon fill="green" stroke="green" stroke-width="0.26" points="1451.17,-102.09 1440.9,-99.48 1447.29,-107.92 1451.17,-102.09"/>
</g>
<!-- &#45;43 -->
<g id="node43" class="node">
<title>&#45;43</title>
<polygon fill="lightgray" stroke="black" points="1676.5,-162.12 1647.5,-162.12 1647.5,-144.12 1676.5,-144.12 1676.5,-162.12"/>
<text text-anchor="middle" x="1662" y="-150.92" font-family="Times,serif" font-size="9.00">&#45;43</text>
</g>
<!-- &#45;43&#45;&gt;0 -->
<g id="edge173" class="edge">
<title>&#45;43&#45;&gt;0</title>
<path fill="none" stroke="red" stroke-width="0.41" d="M1657.52,-143.88C1648.02,-127.1 1624.32,-88.61 1595,-65.7 1567.92,-44.53 1530.45,-30.33 1506.22,-22.67"/>
<polygon fill="red" stroke="red" stroke-width="0.41" points="1507,-19.25 1496.41,-19.7 1504.97,-25.95 1507,-19.25"/>
</g>
<!-- &#45;43&#45;&gt;67 -->
<g id="edge85" class="edge">
<title>&#45;43&#45;&gt;67</title>
<path fill="none" stroke="red" stroke-width="0.34" d="M1647.27,-146.87C1616.9,-136.04 1546.97,-111.09 1508.52,-97.37"/>
<polygon fill="red" stroke="red" stroke-width="0.34" points="1509.61,-94.05 1499.02,-93.98 1507.26,-100.64 1509.61,-94.05"/>
</g>
<!-- &#45;43&#45;&gt;68 -->
<g id="edge86" class="edge">
<title>&#45;43&#45;&gt;68</title>
<path fill="none" stroke="green" stroke-width="0.61" d="M1647.37,-146.92C1644.29,-145.92 1641.06,-144.93 1638,-144.12 1557.85,-122.98 1531.03,-141.15 1455,-108.12 1452.94,-107.23 1450.89,-106.17 1448.89,-105"/>
<polygon fill="green" stroke="green" stroke-width="0.61" points="1450.79,-102.07 1440.52,-99.46 1446.93,-107.9 1450.79,-102.07"/>
</g>
<!-- &#45;44 -->
<g id="node44" class="node">
<title>&#45;44</title>
<polygon fill="lightgray" stroke="black" points="1723.5,-162.12 1694.5,-162.12 1694.5,-144.12 1723.5,-144.12 1723.5,-162.12"/>
<text text-anchor="middle" x="1709" y="-150.92" font-family="Times,serif" font-size="9.00">&#45;44</text>
</g>
<!-- &#45;44&#45;&gt;0 -->
<g id="edge174" class="edge">
<title>&#45;44&#45;&gt;0</title>
<path fill="none" stroke="red" stroke-width="0.24" d="M1703.6,-143.96C1691.95,-126.98 1662.79,-87.62 1629,-65.7 1590.17,-40.51 1537.28,-26.68 1506.67,-20.31"/>
<polygon fill="red" stroke="red" stroke-width="0.24" points="1507.32,-16.87 1496.83,-18.36 1505.96,-23.74 1507.32,-16.87"/>
</g>
<!-- &#45;44&#45;&gt;67 -->
<g id="edge87" class="edge">
<title>&#45;44&#45;&gt;67</title>
<path fill="none" stroke="green" stroke-width="0.15" d="M1694.32,-147.1C1691.25,-146.08 1688.02,-145.05 1685,-144.12 1622.68,-125.12 1548.78,-105.34 1509.6,-95.07"/>
<polygon fill="green" stroke="green" stroke-width="0.15" points="1510.3,-91.64 1499.74,-92.49 1508.53,-98.41 1510.3,-91.64"/>
</g>
<!-- &#45;44&#45;&gt;68 -->
<g id="edge88" class="edge">
<title>&#45;44&#45;&gt;68</title>
<path fill="none" stroke="red" stroke-width="0.22" d="M1694.39,-146.83C1691.32,-145.83 1688.07,-144.87 1685,-144.12 1584.46,-119.68 1550.69,-147.49 1455,-108.12 1452.93,-107.27 1450.86,-106.24 1448.85,-105.09"/>
<polygon fill="red" stroke="red" stroke-width="0.22" points="1450.75,-102.15 1440.47,-99.59 1446.9,-108 1450.75,-102.15"/>
</g>
<!-- &#45;45 -->
<g id="node45" class="node">
<title>&#45;45</title>
<polygon fill="lightgray" stroke="black" points="1770.5,-162.12 1741.5,-162.12 1741.5,-144.12 1770.5,-144.12 1770.5,-162.12"/>
<text text-anchor="middle" x="1756" y="-150.92" font-family="Times,serif" font-size="9.00">&#45;45</text>
</g>
<!-- &#45;45&#45;&gt;0 -->
<g id="edge175" class="edge">
<title>&#45;45&#45;&gt;0</title>
<path fill="none" stroke="green" stroke-width="0.11" d="M1749.98,-144.08C1736.75,-126.97 1703.33,-86.82 1666,-65.7 1614.05,-36.31 1543.98,-23.59 1507.1,-18.64"/>
<polygon fill="green" stroke="green" stroke-width="0.11" points="1507.14,-15.11 1496.78,-17.34 1506.26,-22.06 1507.14,-15.11"/>
</g>
<!-- &#45;45&#45;&gt;67 -->
<g id="edge89" class="edge">
<title>&#45;45&#45;&gt;67</title>
<path fill="none" stroke="red" stroke-width="0.21" d="M1741.35,-146.98C1738.28,-145.98 1735.05,-144.97 1732,-144.12 1652.28,-121.94 1556.42,-102.31 1509.97,-93.24"/>
<polygon fill="red" stroke="red" stroke-width="0.21" points="1510.52,-89.79 1500.04,-91.32 1509.19,-96.66 1510.52,-89.79"/>
</g>
<!-- &#45;45&#45;&gt;68 -->
<g id="edge90" class="edge">
<title>&#45;45&#45;&gt;68</title>
<path fill="none" stroke="red" stroke-width="0.11" d="M1741.4,-146.76C1738.33,-145.77 1735.08,-144.83 1732,-144.12 1611,-116.37 1570.42,-153.86 1455,-108.12 1452.92,-107.3 1450.85,-106.28 1448.83,-105.15"/>
<polygon fill="red" stroke="red" stroke-width="0.11" points="1450.72,-102.21 1440.44,-99.67 1446.89,-108.07 1450.72,-102.21"/>
</g>
<!-- &#45;46 -->
<g id="node46" class="node">
<title>&#45;46</title>
<polygon fill="lightgray" stroke="black" points="1817.5,-162.12 1788.5,-162.12 1788.5,-144.12 1817.5,-144.12 1817.5,-162.12"/>
<text text-anchor="middle" x="1803" y="-150.92" font-family="Times,serif" font-size="9.00">&#45;46</text>
</g>
<!-- &#45;46&#45;&gt;0 -->
<g id="edge176" class="edge">
<title>&#45;46&#45;&gt;0</title>
<path fill="none" stroke="red" stroke-width="0.15" d="M1796.53,-143.96C1782.32,-126.61 1746.48,-86.03 1707,-65.7 1640.08,-31.24 1550.01,-20.51 1506.95,-17.24"/>
<polygon fill="red" stroke="red" stroke-width="0.15" points="1507.04,-13.74 1496.82,-16.54 1506.56,-20.72 1507.04,-13.74"/>
</g>
<!-- &#45;46&#45;&gt;67 -->
<g id="edge91" class="edge">
<title>&#45;46&#45;&gt;67</title>
<path fill="none" stroke="green" stroke-width="0.15" d="M1788.37,-146.9C1785.3,-145.9 1782.06,-144.92 1779,-144.12 1681.59,-118.8 1563.44,-99.87 1510.3,-91.97"/>
<polygon fill="green" stroke="green" stroke-width="0.15" points="1510.67,-88.48 1500.27,-90.49 1509.65,-95.41 1510.67,-88.48"/>
</g>
<!-- &#45;46&#45;&gt;68 -->
<g id="edge92" class="edge">
<title>&#45;46&#45;&gt;68</title>
<path fill="none" stroke="red" stroke-width="0.24" d="M1788.41,-146.72C1785.34,-145.73 1782.09,-144.8 1779,-144.12 1637.49,-113.04 1590.19,-160.24 1455,-108.12 1452.91,-107.32 1450.83,-106.32 1448.81,-105.19"/>
<polygon fill="red" stroke="red" stroke-width="0.24" points="1450.7,-102.25 1440.41,-99.73 1446.88,-108.12 1450.7,-102.25"/>
</g>
<!-- &#45;47 -->
<g id="node47" class="node">
<title>&#45;47</title>
<polygon fill="lightgray" stroke="black" points="1864.5,-162.12 1835.5,-162.12 1835.5,-144.12 1864.5,-144.12 1864.5,-162.12"/>
<text text-anchor="middle" x="1850" y="-150.92" font-family="Times,serif" font-size="9.00">&#45;47</text>
</g>
<!-- &#45;47&#45;&gt;0 -->
<g id="edge177" class="edge">
<title>&#45;47&#45;&gt;0</title>
<path fill="none" stroke="green" stroke-width="0.13" stroke-dasharray="1,5" d="M1843.14,-143.86C1828.1,-126.33 1790.22,-85.42 1749,-65.7 1666.72,-26.34 1556.34,-18 1507.31,-16.27"/>
<polygon fill="green" stroke="green" stroke-width="0.13" points="1507.1,-12.77 1497,-15.98 1506.9,-19.76 1507.1,-12.77"/>
</g>
<!-- &#45;47&#45;&gt;67 -->
<g id="edge93" class="edge">
<title>&#45;47&#45;&gt;67</title>
<path fill="none" stroke="green" stroke-width="0.45" d="M1835.39,-146.84C1832.31,-145.85 1829.07,-144.88 1826,-144.12 1710.68,-115.68 1569.97,-97.81 1510.6,-91.02"/>
<polygon fill="green" stroke="green" stroke-width="0.45" points="1510.81,-87.52 1500.48,-89.88 1510.03,-94.48 1510.81,-87.52"/>
</g>
<!-- &#45;47&#45;&gt;68 -->
<g id="edge94" class="edge">
<title>&#45;47&#45;&gt;68</title>
<path fill="none" stroke="red" stroke-width="0.31" d="M1835.42,-146.69C1832.35,-145.7 1829.09,-144.78 1826,-144.12 1663.95,-109.71 1609.99,-166.64 1455,-108.12 1452.9,-107.33 1450.82,-106.34 1448.8,-105.23"/>
<polygon fill="red" stroke="red" stroke-width="0.31" points="1450.69,-102.28 1440.4,-99.77 1446.88,-108.15 1450.69,-102.28"/>
</g>
<!-- &#45;48 -->
<g id="node48" class="node">
<title>&#45;48</title>
<polygon fill="lightgray" stroke="black" points="1911.5,-162.12 1882.5,-162.12 1882.5,-144.12 1911.5,-144.12 1911.5,-162.12"/>
<text text-anchor="middle" x="1897" y="-150.92" font-family="Times,serif" font-size="9.00">&#45;48</text>
</g>
<!-- &#45;48&#45;&gt;0 -->
<g id="edge178" class="edge">
<title>&#45;48&#45;&gt;0</title>
<path fill="none" stroke="green" stroke-width="0.21" d="M1890.16,-144.05C1874.79,-126.52 1835.54,-85.01 1793,-65.7 1694.25,-20.87 1561.84,-15.58 1507.2,-15.47"/>
<polygon fill="green" stroke="green" stroke-width="0.21" points="1507.03,-11.97 1497.05,-15.51 1507.06,-18.97 1507.03,-11.97"/>
</g>
<!-- &#45;48&#45;&gt;67 -->
<g id="edge95" class="edge">
<title>&#45;48&#45;&gt;67</title>
<path fill="none" stroke="green" stroke-width="0.23" d="M1882.4,-146.8C1879.32,-145.8 1876.08,-144.85 1873,-144.12 1739.57,-112.56 1576.07,-96.01 1510.85,-90.28"/>
<polygon fill="green" stroke="green" stroke-width="0.23" points="1510.8,-86.76 1500.54,-89.39 1510.2,-93.74 1510.8,-86.76"/>
</g>
<!-- &#45;48&#45;&gt;68 -->
<g id="edge96" class="edge">
<title>&#45;48&#45;&gt;68</title>
<path fill="none" stroke="red" stroke-width="0.22" d="M1882.43,-146.66C1879.35,-145.68 1876.1,-144.77 1873,-144.12 1690.39,-106.38 1629.8,-173.04 1455,-108.12 1452.9,-107.34 1450.82,-106.36 1448.79,-105.25"/>
<polygon fill="red" stroke="red" stroke-width="0.22" points="1450.68,-102.31 1440.38,-99.81 1446.87,-108.18 1450.68,-102.31"/>
</g>
<!-- &#45;49 -->
<g id="node49" class="node">
<title>&#45;49</title>
<polygon fill="lightgray" stroke="black" points="1958.5,-162.12 1929.5,-162.12 1929.5,-144.12 1958.5,-144.12 1958.5,-162.12"/>
<text text-anchor="middle" x="1944" y="-150.92" font-family="Times,serif" font-size="9.00">&#45;49</text>
</g>
<!-- &#45;49&#45;&gt;0 -->
<g id="edge179" class="edge">
<title>&#45;49&#45;&gt;0</title>
<path fill="none" stroke="red" stroke-width="0.11" d="M1937.02,-143.99C1921.34,-126.34 1881.31,-84.6 1838,-65.7 1778.14,-39.57 1578.19,-22.84 1507.24,-17.61"/>
<polygon fill="red" stroke="red" stroke-width="0.11" points="1507.23,-14.1 1497,-16.87 1506.72,-21.08 1507.23,-14.1"/>
</g>
<!-- &#45;49&#45;&gt;67 -->
<g id="edge97" class="edge">
<title>&#45;49&#45;&gt;67</title>
<path fill="none" stroke="green" stroke-width="0.44" d="M1929.41,-146.76C1926.33,-145.77 1923.08,-144.83 1920,-144.12 1768.18,-109.43 1581.52,-94.4 1510.9,-89.67"/>
<polygon fill="green" stroke="green" stroke-width="0.44" points="1510.79,-86.16 1500.58,-89 1510.34,-93.14 1510.79,-86.16"/>
</g>
<!-- &#45;49&#45;&gt;68 -->
<g id="edge98" class="edge">
<title>&#45;49&#45;&gt;68</title>
<path fill="none" stroke="red" stroke-width="0.34" d="M1929.43,-146.64C1926.35,-145.66 1923.1,-144.75 1920,-144.12 1716.83,-103.04 1649.63,-179.45 1455,-108.12 1452.9,-107.35 1450.81,-106.38 1448.78,-105.27"/>
<polygon fill="red" stroke="red" stroke-width="0.34" points="1450.67,-102.33 1440.37,-99.83 1446.87,-108.2 1450.67,-102.33"/>
</g>
<!-- &#45;50 -->
<g id="node50" class="node">
<title>&#45;50</title>
<polygon fill="lightgray" stroke="black" points="2005.5,-162.12 1976.5,-162.12 1976.5,-144.12 2005.5,-144.12 2005.5,-162.12"/>
<text text-anchor="middle" x="1991" y="-150.92" font-family="Times,serif" font-size="9.00">&#45;50</text>
</g>
<!-- &#45;50&#45;&gt;0 -->
<g id="edge180" class="edge">
<title>&#45;50&#45;&gt;0</title>
<path fill="none" stroke="red" stroke-width="0.17" d="M1983.87,-143.94C1967.87,-126.2 1927.03,-84.28 1883,-65.7 1814.46,-36.78 1584.29,-21.56 1507.32,-17.19"/>
<polygon fill="red" stroke="red" stroke-width="0.17" points="1507.29,-13.69 1497.11,-16.63 1506.9,-20.68 1507.29,-13.69"/>
</g>
<!-- &#45;50&#45;&gt;67 -->
<g id="edge99" class="edge">
<title>&#45;50&#45;&gt;67</title>
<path fill="none" stroke="red" stroke-width="0.32" d="M1976.41,-146.73C1973.34,-145.74 1970.09,-144.81 1967,-144.12 1796.64,-106.29 1586.62,-92.95 1510.91,-89.18"/>
<polygon fill="red" stroke="red" stroke-width="0.32" points="1510.89,-85.68 1500.73,-88.69 1510.55,-92.67 1510.89,-85.68"/>
</g>
<!-- &#45;50&#45;&gt;68 -->
<g id="edge100" class="edge">
<title>&#45;50&#45;&gt;68</title>
<path fill="none" stroke="green" stroke-width="0.19" d="M1976.43,-146.62C1973.36,-145.64 1970.1,-144.74 1967,-144.12 1743.25,-99.71 1669.46,-185.86 1455,-108.12 1452.89,-107.36 1450.8,-106.39 1448.77,-105.29"/>
<polygon fill="green" stroke="green" stroke-width="0.19" points="1450.66,-102.34 1440.37,-99.86 1446.87,-108.22 1450.66,-102.34"/>
</g>
<!-- &#45;51 -->
<g id="node51" class="node">
<title>&#45;51</title>
<polygon fill="lightgray" stroke="black" points="2052.5,-162.12 2023.5,-162.12 2023.5,-144.12 2052.5,-144.12 2052.5,-162.12"/>
<text text-anchor="middle" x="2038" y="-150.92" font-family="Times,serif" font-size="9.00">&#45;51</text>
</g>
<!-- &#45;51&#45;&gt;0 -->
<g id="edge181" class="edge">
<title>&#45;51&#45;&gt;0</title>
<path fill="none" stroke="green" stroke-width="0.41" d="M2030.8,-143.9C2014.65,-126.07 1973.44,-84 1929,-65.7 1851.52,-33.78 1589.75,-20.34 1507.17,-16.83"/>
<polygon fill="green" stroke="green" stroke-width="0.41" points="1507.09,-13.33 1496.96,-16.41 1506.8,-20.32 1507.09,-13.33"/>
</g>
<!-- &#45;51&#45;&gt;67 -->
<g id="edge101" class="edge">
<title>&#45;51&#45;&gt;67</title>
<path fill="none" stroke="green" stroke-width="0.55" d="M2023.42,-146.71C2020.34,-145.72 2017.09,-144.79 2014,-144.12 1825.02,-103.15 1591.53,-91.64 1510.94,-88.77"/>
<polygon fill="green" stroke="green" stroke-width="0.55" points="1510.72,-85.26 1500.61,-88.42 1510.48,-92.26 1510.72,-85.26"/>
</g>
<!-- &#45;51&#45;&gt;68 -->
<g id="edge102" class="edge">
<title>&#45;51&#45;&gt;68</title>
<path fill="none" stroke="green" stroke-width="0.23" d="M2023.44,-146.61C2020.36,-145.63 2017.1,-144.73 2014,-144.12 1891.83,-120.25 1572.15,-150.2 1455,-108.12 1452.89,-107.37 1450.8,-106.4 1448.77,-105.3"/>
<polygon fill="green" stroke="green" stroke-width="0.23" points="1450.66,-102.36 1440.36,-99.87 1446.86,-108.24 1450.66,-102.36"/>
</g>
<!-- &#45;52 -->
<g id="node52" class="node">
<title>&#45;52</title>
<polygon fill="lightgray" stroke="black" points="2099.5,-162.12 2070.5,-162.12 2070.5,-144.12 2099.5,-144.12 2099.5,-162.12"/>
<text text-anchor="middle" x="2085" y="-150.92" font-family="Times,serif" font-size="9.00">&#45;52</text>
</g>
<!-- &#45;52&#45;&gt;0 -->
<g id="edge182" class="edge">
<title>&#45;52&#45;&gt;0</title>
<path fill="none" stroke="red" stroke-width="0.44" d="M2077.73,-143.87C2061.43,-125.97 2019.82,-83.78 1975,-65.7 1888.54,-30.83 1595.12,-19.27 1507.14,-16.55"/>
<polygon fill="red" stroke="red" stroke-width="0.44" points="1507.11,-13.04 1497.01,-16.24 1506.9,-20.04 1507.11,-13.04"/>
</g>
<!-- &#45;52&#45;&gt;67 -->
<g id="edge103" class="edge">
<title>&#45;52&#45;&gt;67</title>
<path fill="none" stroke="red" stroke-width="0.41" d="M2070.42,-146.69C2067.35,-145.7 2064.09,-144.78 2061,-144.12 1853.02,-99.96 1595.55,-90.42 1510.64,-88.42"/>
<polygon fill="red" stroke="red" stroke-width="0.41" points="1510.56,-84.92 1500.48,-88.2 1510.4,-91.92 1510.56,-84.92"/>
</g>
<!-- &#45;52&#45;&gt;68 -->
<g id="edge104" class="edge">
<title>&#45;52&#45;&gt;68</title>
<path fill="none" stroke="red" stroke-width="0.2" d="M2070.44,-146.6C2067.36,-145.62 2064.11,-144.72 2061,-144.12 1928.54,-118.58 1582.08,-153.41 1455,-108.12 1452.89,-107.37 1450.8,-106.41 1448.77,-105.31"/>
<polygon fill="red" stroke="red" stroke-width="0.2" points="1450.65,-102.37 1440.35,-99.89 1446.86,-108.25 1450.65,-102.37"/>
</g>
<!-- &#45;53 -->
<g id="node53" class="node">
<title>&#45;53</title>
<polygon fill="lightgray" stroke="black" points="2146.5,-162.12 2117.5,-162.12 2117.5,-144.12 2146.5,-144.12 2146.5,-162.12"/>
<text text-anchor="middle" x="2132" y="-150.92" font-family="Times,serif" font-size="9.00">&#45;53</text>
</g>
<!-- &#45;53&#45;&gt;0 -->
<g id="edge183" class="edge">
<title>&#45;53&#45;&gt;0</title>
<path fill="none" stroke="red" stroke-width="0.24" d="M2124.91,-144.11C2108.62,-126.31 2066.42,-83.68 2021,-65.7 1925.49,-27.89 1600.04,-18.3 1507.02,-16.31"/>
<polygon fill="red" stroke="red" stroke-width="0.24" points="1506.93,-12.81 1496.86,-16.1 1506.78,-19.81 1506.93,-12.81"/>
</g>
<!-- &#45;53&#45;&gt;67 -->
<g id="edge105" class="edge">
<title>&#45;53&#45;&gt;67</title>
<path fill="none" stroke="green" stroke-width="0.44" d="M2117.43,-146.67C2114.35,-145.69 2111.1,-144.77 2108,-144.12 1881.13,-96.8 1599.81,-89.31 1510.56,-88.13"/>
<polygon fill="green" stroke="green" stroke-width="0.44" points="1510.45,-84.63 1500.41,-88.01 1510.37,-91.63 1510.45,-84.63"/>
</g>
<!-- &#45;53&#45;&gt;68 -->
<g id="edge106" class="edge">
<title>&#45;53&#45;&gt;68</title>
<path fill="none" stroke="red" stroke-width="0.38" d="M2117.44,-146.59C2114.36,-145.61 2111.11,-144.72 2108,-144.12 1965.24,-116.9 1592,-156.61 1455,-108.12 1452.89,-107.38 1450.8,-106.42 1448.76,-105.32"/>
<polygon fill="red" stroke="red" stroke-width="0.38" points="1450.65,-102.38 1440.35,-99.9 1446.86,-108.26 1450.65,-102.38"/>
</g>
<!-- &#45;54 -->
<g id="node54" class="node">
<title>&#45;54</title>
<polygon fill="lightgray" stroke="black" points="2193.5,-162.12 2164.5,-162.12 2164.5,-144.12 2193.5,-144.12 2193.5,-162.12"/>
<text text-anchor="middle" x="2179" y="-150.92" font-family="Times,serif" font-size="9.00">&#45;54</text>
</g>
<!-- &#45;54&#45;&gt;0 -->
<g id="edge184" class="edge">
<title>&#45;54&#45;&gt;0</title>
<path fill="none" stroke="green" stroke-width="0.43" d="M2171.92,-144.08C2155.65,-126.24 2113.48,-83.51 2068,-65.7 1963.29,-24.7 1604.96,-17.35 1506.95,-16.1"/>
<polygon fill="green" stroke="green" stroke-width="0.43" points="1506.85,-12.59 1496.81,-15.98 1506.77,-19.59 1506.85,-12.59"/>
</g>
<!-- &#45;54&#45;&gt;67 -->
<g id="edge107" class="edge">
<title>&#45;54&#45;&gt;67</title>
<path fill="none" stroke="red" stroke-width="0.12" d="M2164.43,-146.65C2161.35,-145.67 2158.1,-144.76 2155,-144.12 1909.19,-93.65 1603.99,-88.28 1510.52,-87.88"/>
<polygon fill="red" stroke="red" stroke-width="0.12" points="1510.44,-84.38 1500.43,-87.85 1510.42,-91.38 1510.44,-84.38"/>
</g>
<!-- &#45;54&#45;&gt;68 -->
<g id="edge108" class="edge">
<title>&#45;54&#45;&gt;68</title>
<path fill="none" stroke="green" stroke-width="0.11" d="M2164.44,-146.58C2161.37,-145.6 2158.11,-144.71 2155,-144.12 2001.94,-115.23 1601.93,-159.82 1455,-108.12 1452.89,-107.38 1450.79,-106.42 1448.76,-105.33"/>
<polygon fill="green" stroke="green" stroke-width="0.11" points="1450.65,-102.38 1440.34,-99.92 1446.86,-108.27 1450.65,-102.38"/>
</g>
<!-- &#45;55 -->
<g id="node55" class="node">
<title>&#45;55</title>
<polygon fill="lightgray" stroke="black" points="2240.5,-162.12 2211.5,-162.12 2211.5,-144.12 2240.5,-144.12 2240.5,-162.12"/>
<text text-anchor="middle" x="2226" y="-150.92" font-family="Times,serif" font-size="9.00">&#45;55</text>
</g>
<!-- &#45;55&#45;&gt;0 -->
<g id="edge185" class="edge">
<title>&#45;55&#45;&gt;0</title>
<path fill="none" stroke="green" stroke-width="0.2" d="M2218.93,-144.06C2202.67,-126.18 2160.54,-83.37 2115,-65.7 2001.09,-21.51 1609.83,-16.47 1506.95,-15.91"/>
<polygon fill="green" stroke="green" stroke-width="0.2" points="1506.89,-12.41 1496.88,-15.87 1506.86,-19.41 1506.89,-12.41"/>
</g>
<!-- &#45;55&#45;&gt;67 -->
<g id="edge109" class="edge">
<title>&#45;55&#45;&gt;67</title>
<path fill="none" stroke="red" stroke-width="0.27" d="M2211.43,-146.64C2208.35,-145.66 2205.1,-144.75 2202,-144.12 1937.54,-90.56 1608.9,-87.33 1510.88,-87.66"/>
<polygon fill="red" stroke="red" stroke-width="0.27" points="1510.57,-84.16 1500.59,-87.71 1510.6,-91.16 1510.57,-84.16"/>
</g>
<!-- &#45;55&#45;&gt;68 -->
<g id="edge110" class="edge">
<title>&#45;55&#45;&gt;68</title>
<path fill="none" stroke="red" stroke-width="0.21" d="M2211.44,-146.57C2208.37,-145.59 2205.11,-144.71 2202,-144.12 2038.64,-113.56 1611.86,-163.03 1455,-108.12 1452.89,-107.38 1450.79,-106.43 1448.76,-105.34"/>
<polygon fill="red" stroke="red" stroke-width="0.21" points="1450.64,-102.39 1440.34,-99.93 1446.86,-108.28 1450.64,-102.39"/>
</g>
<!-- &#45;56 -->
<g id="node56" class="node">
<title>&#45;56</title>
<polygon fill="lightgray" stroke="black" points="2945.5,-162.12 2916.5,-162.12 2916.5,-144.12 2945.5,-144.12 2945.5,-162.12"/>
<text text-anchor="middle" x="2931" y="-150.92" font-family="Times,serif" font-size="9.00">&#45;56</text>
</g>
<!-- &#45;56&#45;&gt;0 -->
<g id="edge186" class="edge">
<title>&#45;56&#45;&gt;0</title>
<path fill="none" stroke="red" stroke-width="0.43" d="M2931.99,-144.08C2933.62,-126.6 2934.65,-85.19 2911,-65.7 2854.61,-19.24 1693.26,-16.07 1507.08,-15.86"/>
<polygon fill="red" stroke="red" stroke-width="0.43" points="1506.91,-12.36 1496.91,-15.85 1506.9,-19.36 1506.91,-12.36"/>
</g>
<!-- &#45;56&#45;&gt;67 -->
<g id="edge111" class="edge">
<title>&#45;56&#45;&gt;67</title>
<path fill="none" stroke="green" stroke-width="0.19" d="M2916.08,-146.22C2913.43,-145.38 2910.66,-144.63 2908,-144.12 2626.04,-90.75 1686.73,-87.94 1510.6,-87.89"/>
<polygon fill="green" stroke="green" stroke-width="0.19" points="1510.55,-84.39 1500.55,-87.89 1510.55,-91.39 1510.55,-84.39"/>
</g>
<!-- &#45;56&#45;&gt;68 -->
<g id="edge112" class="edge">
<title>&#45;56&#45;&gt;68</title>
<path fill="none" stroke="green" stroke-width="0.57" d="M2916.09,-146.19C2913.43,-145.35 2910.66,-144.61 2908,-144.12 2749.11,-115.25 1608.04,-159.69 1455,-108.12 1452.88,-107.41 1450.78,-106.47 1448.74,-105.39"/>
<polygon fill="green" stroke="green" stroke-width="0.57" points="1450.62,-102.44 1440.32,-100 1446.85,-108.34 1450.62,-102.44"/>
</g>
<!-- 112 -->
<g id="node68" class="node">
<title>112</title>
<ellipse fill="white" stroke="black" cx="2881" cy="-86.91" rx="21.43" ry="21.43"/>
<text text-anchor="middle" x="2881" y="-84.71" font-family="Times,serif" font-size="9.00">112</text>
</g>
<!-- &#45;56&#45;&gt;112 -->
<g id="edge195" class="edge">
<title>&#45;56&#45;&gt;112</title>
<path fill="none" stroke="green" stroke-width="0.32" d="M2924.67,-143.99C2918.47,-136.03 2908.71,-123.5 2899.99,-112.31"/>
<polygon fill="green" stroke="green" stroke-width="0.32" points="2902.51,-109.84 2893.61,-104.1 2896.99,-114.14 2902.51,-109.84"/>
</g>
<!-- &#45;57 -->
<g id="node57" class="node">
<title>&#45;57</title>
<polygon fill="lightgray" stroke="black" points="2287.5,-162.12 2258.5,-162.12 2258.5,-144.12 2287.5,-144.12 2287.5,-162.12"/>
<text text-anchor="middle" x="2273" y="-150.92" font-family="Times,serif" font-size="9.00">&#45;57</text>
</g>
<!-- &#45;57&#45;&gt;0 -->
<g id="edge187" class="edge">
<title>&#45;57&#45;&gt;0</title>
<path fill="none" stroke="red" stroke-width="0.3" stroke-dasharray="1,5" d="M2265.93,-144.05C2249.69,-126.12 2207.59,-83.24 2162,-65.7 2038.9,-18.32 1614.78,-15.65 1507.04,-15.76"/>
<polygon fill="red" stroke="red" stroke-width="0.3" points="1506.81,-12.26 1496.82,-15.78 1506.83,-19.26 1506.81,-12.26"/>
</g>
<!-- &#45;57&#45;&gt;67 -->
<g id="edge113" class="edge">
<title>&#45;57&#45;&gt;67</title>
<path fill="none" stroke="green" stroke-width="0.23" d="M2258.43,-146.63C2255.36,-145.65 2252.1,-144.75 2249,-144.12 1965.41,-87.39 1612.61,-86.42 1510.75,-87.46"/>
<polygon fill="green" stroke="green" stroke-width="0.23" points="1510.59,-83.97 1500.63,-87.58 1510.67,-90.97 1510.59,-83.97"/>
</g>
<!-- &#45;57&#45;&gt;68 -->
<g id="edge114" class="edge">
<title>&#45;57&#45;&gt;68</title>
<path fill="none" stroke="red" stroke-width="0.27" d="M2258.45,-146.56C2255.37,-145.59 2252.11,-144.7 2249,-144.12 2075.34,-111.89 1621.79,-166.24 1455,-108.12 1452.88,-107.39 1450.79,-106.43 1448.75,-105.34"/>
<polygon fill="red" stroke="red" stroke-width="0.27" points="1450.64,-102.4 1440.34,-99.94 1446.86,-108.29 1450.64,-102.4"/>
</g>
<!-- &#45;58 -->
<g id="node58" class="node">
<title>&#45;58</title>
<polygon fill="lightgray" stroke="black" points="2334.5,-162.12 2305.5,-162.12 2305.5,-144.12 2334.5,-144.12 2334.5,-162.12"/>
<text text-anchor="middle" x="2320" y="-150.92" font-family="Times,serif" font-size="9.00">&#45;58</text>
</g>
<!-- &#45;58&#45;&gt;0 -->
<g id="edge188" class="edge">
<title>&#45;58&#45;&gt;0</title>
<path fill="none" stroke="green" stroke-width="0.67" d="M2312.94,-144.03C2296.71,-126.08 2254.63,-83.13 2209,-65.7 2076.62,-15.11 1619.14,-14.89 1506.97,-15.62"/>
<polygon fill="green" stroke="green" stroke-width="0.67" points="1506.92,-12.12 1496.94,-15.7 1506.97,-19.12 1506.92,-12.12"/>
</g>
<!-- &#45;58&#45;&gt;67 -->
<g id="edge115" class="edge">
<title>&#45;58&#45;&gt;67</title>
<path fill="none" stroke="red" stroke-width="0.26" d="M2305.44,-146.62C2302.36,-145.64 2299.1,-144.74 2296,-144.12 2140.72,-113.4 1636.19,-93.48 1510.54,-88.91"/>
<polygon fill="red" stroke="red" stroke-width="0.26" points="1510.66,-85.42 1500.54,-88.55 1510.41,-92.41 1510.66,-85.42"/>
</g>
<!-- &#45;58&#45;&gt;68 -->
<g id="edge116" class="edge">
<title>&#45;58&#45;&gt;68</title>
<path fill="none" stroke="red" stroke-width="0.37" d="M2305.45,-146.56C2302.37,-145.58 2299.11,-144.7 2296,-144.12 2112.04,-110.22 1631.72,-169.45 1455,-108.12 1452.88,-107.39 1450.79,-106.44 1448.75,-105.35"/>
<polygon fill="red" stroke="red" stroke-width="0.37" points="1450.64,-102.4 1440.33,-99.94 1446.86,-108.29 1450.64,-102.4"/>
</g>
<!-- &#45;59 -->
<g id="node59" class="node">
<title>&#45;59</title>
<polygon fill="lightgray" stroke="black" points="2381.5,-162.12 2352.5,-162.12 2352.5,-144.12 2381.5,-144.12 2381.5,-162.12"/>
<text text-anchor="middle" x="2367" y="-150.92" font-family="Times,serif" font-size="9.00">&#45;59</text>
</g>
<!-- &#45;59&#45;&gt;0 -->
<g id="edge189" class="edge">
<title>&#45;59&#45;&gt;0</title>
<path fill="none" stroke="red" stroke-width="0.55" d="M2360.03,-144.02C2343.99,-126.04 2302.37,-83.04 2257,-65.7 2115.32,-11.54 1624.05,-14.08 1507.12,-15.48"/>
<polygon fill="red" stroke="red" stroke-width="0.55" points="1506.95,-11.98 1497,-15.61 1507.04,-18.98 1506.95,-11.98"/>
</g>
<!-- &#45;59&#45;&gt;67 -->
<g id="edge117" class="edge">
<title>&#45;59&#45;&gt;67</title>
<path fill="none" stroke="red" stroke-width="0.59" d="M2352.44,-146.61C2349.36,-145.63 2346.1,-144.73 2343,-144.12 2178.2,-111.84 1641.61,-92.99 1510.9,-88.8"/>
<polygon fill="red" stroke="red" stroke-width="0.59" points="1510.63,-85.29 1500.53,-88.47 1510.41,-92.29 1510.63,-85.29"/>
</g>
<!-- &#45;59&#45;&gt;68 -->
<g id="edge118" class="edge">
<title>&#45;59&#45;&gt;68</title>
<path fill="none" stroke="red" stroke-width="0.22" d="M2352.45,-146.55C2349.37,-145.58 2346.11,-144.69 2343,-144.12 2148.74,-108.55 1641.65,-172.66 1455,-108.12 1452.88,-107.39 1450.79,-106.44 1448.75,-105.36"/>
<polygon fill="red" stroke="red" stroke-width="0.22" points="1450.64,-102.41 1440.33,-99.95 1446.86,-108.3 1450.64,-102.41"/>
</g>
<!-- &#45;60 -->
<g id="node60" class="node">
<title>&#45;60</title>
<polygon fill="lightgray" stroke="black" points="2428.5,-162.12 2399.5,-162.12 2399.5,-144.12 2428.5,-144.12 2428.5,-162.12"/>
<text text-anchor="middle" x="2414" y="-150.92" font-family="Times,serif" font-size="9.00">&#45;60</text>
</g>
<!-- &#45;60&#45;&gt;0 -->
<g id="edge190" class="edge">
<title>&#45;60&#45;&gt;0</title>
<path fill="none" stroke="red" stroke-width="0.13" d="M2407.11,-144.01C2391.26,-126 2350.11,-82.96 2305,-65.7 2228.92,-36.59 1637.51,-19.84 1507.3,-16.48"/>
<polygon fill="red" stroke="red" stroke-width="0.13" points="1507.2,-12.97 1497.12,-16.22 1507.02,-19.97 1507.2,-12.97"/>
</g>
<!-- &#45;60&#45;&gt;67 -->
<g id="edge119" class="edge">
<title>&#45;60&#45;&gt;67</title>
<path fill="none" stroke="green" stroke-width="0.12" d="M2399.44,-146.6C2396.36,-145.62 2393.1,-144.73 2390,-144.12 2215.44,-110.23 1645.49,-92.47 1510.74,-88.69"/>
<polygon fill="green" stroke="green" stroke-width="0.12" points="1510.52,-85.18 1500.43,-88.4 1510.33,-92.18 1510.52,-85.18"/>
</g>
<!-- &#45;60&#45;&gt;68 -->
<g id="edge120" class="edge">
<title>&#45;60&#45;&gt;68</title>
<path fill="none" stroke="red" stroke-width="0.4" d="M2399.45,-146.55C2396.37,-145.57 2393.11,-144.69 2390,-144.12 2185.43,-106.88 1651.59,-175.87 1455,-108.12 1452.88,-107.39 1450.78,-106.45 1448.75,-105.36"/>
<polygon fill="red" stroke="red" stroke-width="0.4" points="1450.64,-102.41 1440.33,-99.96 1446.85,-108.3 1450.64,-102.41"/>
</g>
<!-- &#45;61 -->
<g id="node61" class="node">
<title>&#45;61</title>
<polygon fill="lightgray" stroke="black" points="2475.5,-162.12 2446.5,-162.12 2446.5,-144.12 2475.5,-144.12 2475.5,-162.12"/>
<text text-anchor="middle" x="2461" y="-150.92" font-family="Times,serif" font-size="9.00">&#45;61</text>
</g>
<!-- &#45;61&#45;&gt;0 -->
<g id="edge191" class="edge">
<title>&#45;61&#45;&gt;0</title>
<path fill="none" stroke="green" stroke-width="0.36" d="M2454.2,-144C2438.54,-125.97 2397.85,-82.89 2353,-65.7 2272.18,-34.72 1641.31,-19.32 1507.07,-16.38"/>
<polygon fill="green" stroke="green" stroke-width="0.36" points="1507.02,-12.87 1496.94,-16.16 1506.87,-19.87 1507.02,-12.87"/>
</g>
<!-- &#45;61&#45;&gt;67 -->
<g id="edge121" class="edge">
<title>&#45;61&#45;&gt;67</title>
<path fill="none" stroke="green" stroke-width="0.13" d="M2446.44,-146.59C2443.36,-145.62 2440.11,-144.72 2437,-144.12 2252.81,-108.65 1650.15,-92.01 1510.89,-88.59"/>
<polygon fill="green" stroke="green" stroke-width="0.13" points="1510.7,-85.08 1500.62,-88.34 1510.53,-92.08 1510.7,-85.08"/>
</g>
<!-- &#45;61&#45;&gt;68 -->
<g id="edge122" class="edge">
<title>&#45;61&#45;&gt;68</title>
<path fill="none" stroke="green" stroke-width="0.38" d="M2446.45,-146.54C2443.37,-145.57 2440.11,-144.69 2437,-144.12 2222.13,-105.2 1661.52,-179.08 1455,-108.12 1452.88,-107.4 1450.78,-106.45 1448.75,-105.37"/>
<polygon fill="green" stroke="green" stroke-width="0.38" points="1450.63,-102.42 1440.33,-99.96 1446.85,-108.31 1450.63,-102.42"/>
</g>
<!-- &#45;62 -->
<g id="node62" class="node">
<title>&#45;62</title>
<polygon fill="lightgray" stroke="black" points="2522.5,-162.12 2493.5,-162.12 2493.5,-144.12 2522.5,-144.12 2522.5,-162.12"/>
<text text-anchor="middle" x="2508" y="-150.92" font-family="Times,serif" font-size="9.00">&#45;62</text>
</g>
<!-- &#45;62&#45;&gt;0 -->
<g id="edge192" class="edge">
<title>&#45;62&#45;&gt;0</title>
<path fill="none" stroke="red" stroke-width="0.44" d="M2501.2,-143.99C2485.55,-125.94 2444.87,-82.82 2400,-65.7 2314.52,-33.08 1645.73,-18.9 1507.1,-16.3"/>
<polygon fill="red" stroke="red" stroke-width="0.44" points="1507.09,-12.8 1497.03,-16.11 1506.96,-19.8 1507.09,-12.8"/>
</g>
<!-- &#45;62&#45;&gt;67 -->
<g id="edge123" class="edge">
<title>&#45;62&#45;&gt;67</title>
<path fill="none" stroke="green" stroke-width="0.2" d="M2493.44,-146.59C2490.36,-145.61 2487.11,-144.72 2484,-144.12 2289.9,-107.02 1653.05,-91.53 1510.48,-88.49"/>
<polygon fill="green" stroke="green" stroke-width="0.2" points="1510.44,-84.99 1500.37,-88.28 1510.29,-91.99 1510.44,-84.99"/>
</g>
<!-- &#45;62&#45;&gt;68 -->
<g id="edge124" class="edge">
<title>&#45;62&#45;&gt;68</title>
<path fill="none" stroke="green" stroke-width="0.47" d="M2493.45,-146.54C2490.37,-145.56 2487.11,-144.69 2484,-144.12 2258.82,-103.53 1671.45,-182.29 1455,-108.12 1452.88,-107.4 1450.78,-106.45 1448.75,-105.37"/>
<polygon fill="green" stroke="green" stroke-width="0.47" points="1450.63,-102.42 1440.33,-99.97 1446.85,-108.31 1450.63,-102.42"/>
</g>
<!-- &#45;63 -->
<g id="node63" class="node">
<title>&#45;63</title>
<polygon fill="lightgray" stroke="black" points="2616.5,-162.12 2587.5,-162.12 2587.5,-144.12 2616.5,-144.12 2616.5,-162.12"/>
<text text-anchor="middle" x="2602" y="-150.92" font-family="Times,serif" font-size="9.00">&#45;63</text>
</g>
<!-- &#45;63&#45;&gt;0 -->
<g id="edge193" class="edge">
<title>&#45;63&#45;&gt;0</title>
<path fill="none" stroke="green" stroke-width="0.39" d="M2595.2,-143.97C2579.57,-125.89 2538.92,-82.71 2494,-65.7 2399.21,-29.8 1654.71,-18.13 1507.31,-16.17"/>
<polygon fill="green" stroke="green" stroke-width="0.39" points="1507.07,-12.66 1497.03,-16.03 1506.98,-19.66 1507.07,-12.66"/>
</g>
<!-- &#45;63&#45;&gt;67 -->
<g id="edge125" class="edge">
<title>&#45;63&#45;&gt;67</title>
<path fill="none" stroke="green" stroke-width="0.32" d="M2587.44,-146.58C2584.37,-145.6 2581.11,-144.71 2578,-144.12 2364.52,-103.84 1661.68,-90.72 1510.72,-88.34"/>
<polygon fill="green" stroke="green" stroke-width="0.32" points="1510.49,-84.83 1500.44,-88.18 1510.38,-91.83 1510.49,-84.83"/>
</g>
<!-- &#45;63&#45;&gt;68 -->
<g id="edge126" class="edge">
<title>&#45;63&#45;&gt;68</title>
<path fill="none" stroke="red" stroke-width="0.21" d="M2587.45,-146.53C2584.37,-145.56 2581.11,-144.68 2578,-144.12 2332.21,-100.19 1691.32,-188.72 1455,-108.12 1452.88,-107.4 1450.78,-106.46 1448.74,-105.38"/>
<polygon fill="red" stroke="red" stroke-width="0.21" points="1450.63,-102.43 1440.32,-99.98 1446.85,-108.32 1450.63,-102.43"/>
</g>
<!-- &#45;64 -->
<g id="node64" class="node">
<title>&#45;64</title>
<polygon fill="lightgray" stroke="black" points="2898.5,-162.12 2869.5,-162.12 2869.5,-144.12 2898.5,-144.12 2898.5,-162.12"/>
<text text-anchor="middle" x="2884" y="-150.92" font-family="Times,serif" font-size="9.00">&#45;64</text>
</g>
<!-- &#45;64&#45;&gt;0 -->
<g id="edge194" class="edge">
<title>&#45;64&#45;&gt;0</title>
<path fill="none" stroke="green" stroke-width="0.2" d="M2877.14,-143.93C2861.35,-125.78 2820.3,-82.46 2775,-65.7 2652.01,-20.18 1677.65,-16.23 1507.35,-15.88"/>
<polygon fill="green" stroke="green" stroke-width="0.2" points="1507.11,-12.38 1497.11,-15.86 1507.1,-19.38 1507.11,-12.38"/>
</g>
<!-- &#45;64&#45;&gt;67 -->
<g id="edge127" class="edge">
<title>&#45;64&#45;&gt;67</title>
<path fill="none" stroke="red" stroke-width="0.11" d="M2869.08,-146.23C2866.42,-145.38 2863.66,-144.63 2861,-144.12 2588.77,-92.41 1682.81,-88.26 1510.46,-87.94"/>
<polygon fill="red" stroke="red" stroke-width="0.11" points="1510.4,-84.44 1500.39,-87.92 1510.39,-91.44 1510.4,-84.44"/>
</g>
<!-- &#45;64&#45;&gt;68 -->
<g id="edge128" class="edge">
<title>&#45;64&#45;&gt;68</title>
<path fill="none" stroke="green" stroke-width="0.16" d="M2869.09,-146.19C2866.43,-145.35 2863.66,-144.61 2861,-144.12 2707.26,-116.12 1603.07,-158.09 1455,-108.12 1452.88,-107.41 1450.78,-106.47 1448.74,-105.39"/>
<polygon fill="green" stroke="green" stroke-width="0.16" points="1450.62,-102.44 1440.32,-100 1446.85,-108.34 1450.62,-102.44"/>
</g>
<!-- 67&#45;&gt;0 -->
<g id="edge129" class="edge">
<title>67&#45;&gt;0</title>
<path fill="none" stroke="green" stroke-width="0.35" d="M1482,-68.23C1482,-59.72 1482,-49.39 1482,-40.16"/>
<polygon fill="green" stroke="green" stroke-width="0.35" points="1485.5,-40 1482,-30 1478.5,-40 1485.5,-40"/>
</g>
<!-- 68&#45;&gt;0 -->
<g id="edge130" class="edge">
<title>68&#45;&gt;0</title>
<path fill="none" stroke="green" stroke-width="0.34" d="M1437.87,-72.07C1446.13,-61.54 1457.6,-46.93 1466.78,-35.24"/>
<polygon fill="green" stroke="green" stroke-width="0.34" points="1469.55,-37.37 1472.98,-27.35 1464.05,-33.05 1469.55,-37.37"/>
</g>
<!-- 112&#45;&gt;0 -->
<g id="edge196" class="edge">
<title>112&#45;&gt;0</title>
<path fill="none" stroke="green" stroke-width="0.23" d="M2863.95,-73.85C2858.47,-70.6 2852.2,-67.48 2846,-65.7 2712.65,-27.33 1681.47,-17.44 1507.03,-16.04"/>
<polygon fill="green" stroke="green" stroke-width="0.23" points="1507.03,-12.54 1497,-15.96 1506.98,-19.54 1507.03,-12.54"/>
</g>
</g>
</svg>
